<svg xmlns="http://www.w3.org/2000/svg" viewBox="0 0 20.547 19.603">
  <defs>
    <style>
      .cls-1 {
        fill: #ebebeb;
      }
    </style>
  </defs>
  <g id="Asset_3filter" data-name="Asset 3filter" transform="translate(0 0)">
    <g id="Calque_2" data-name="Calque 2" transform="translate(0 0)">
      <path id="Path_63" data-name="Path 63" class="cls-1" d="M20.478.394A.685.685,0,0,0,19.858,0H.683A.685.685,0,0,0,.155,1.123l7.376,8.923v8.872a.685.685,0,0,0,.685.685.6.6,0,0,0,.154-.021l4.088-.942a.685.685,0,0,0,.551-.668V10.047l7.376-8.923a.685.685,0,0,0,.092-.729ZM11.787,9.365l-.021.027a.342.342,0,0,0-.038.058.192.192,0,0,0-.031.058.342.342,0,0,0-.027.062l-.021.065V9.7a.51.51,0,0,0,0,.072.1.1,0,0,0,0,.031v7.629l-2.75.627V9.8a.1.1,0,0,0,0-.031.511.511,0,0,0,0-.072V9.636L8.87,9.588a.342.342,0,0,0-.027-.062.192.192,0,0,0-.031-.058.343.343,0,0,0-.038-.058.082.082,0,0,0-.021-.027L2.138,1.37H18.4Z" transform="translate(0.003 0)"/>
    </g>
  </g>
</svg>
