<svg xmlns="http://www.w3.org/2000/svg">
<defs>
<font id="UTMBebas" horiz-adv-x="811" >
  <font-face 
    font-family="UTM Bebas"
    font-weight="400"
    font-stretch="normal"
    units-per-em="2048"
    panose-1="2 4 6 3 5 5 6 2 2 4"
    ascent="1638"
    descent="-410"
    x-height="1434"
    cap-height="1434"
    bbox="-106.001 -372 4942 2195"
    underline-thickness="109"
    underline-position="-143"
    unicode-range="U+0020-U+2212"
  />
<missing-glyph horiz-adv-x="5040" 
d="M3351 2045h10c24.667 -6.66699 37 -24 37 -52c0 -8 -10.667 -27 -32 -57h-28c0 16 9.33301 34 28 54l2 10c-3.33301 8.66699 -6.66602 13.667 -10 15h-9c-5.33301 0 -8.66602 -6.33301 -10 -19h-30c4 32.667 18 49 42 49zM2019 2016l29.001 -31
c0 -10.667 -13.333 -20.667 -40 -30h-19l-59 12l-11 -12l-28 25c7.33301 19.333 21.666 29 42.999 29h11l42 -11h2c6.66699 0 16.667 6 30 18zM468.001 1980h142v-60h-94v-75h89v-59h-89v-129l-5 -5h-49v323zM1155 1980h43l6 -5v-78h30v-52h-30v-188l-6 -5h-49v193h-25v52
h25v78zM1621 1980h41.999l4 -5v-94h3c15.333 16 33.333 24 54 24h2c38.667 0 66.334 -23.667 83.001 -71l2 -39v-143h-52v115c0 53.333 -14 80 -42 80h-7c-28.667 0 -43 -28.667 -43 -86v-109h-51v323zM2200 1980l49 -0.000976562l5 -5v-222c6.66699 -34 21.667 -51 45 -51
c29.333 4.66699 44 24.334 44 59.001v214l5 5h49v-216c0 -56.667 -22 -94 -66 -112c-10 -5.33301 -21.667 -8 -35 -8c-31.333 0 -58.666 18.333 -82 55c-9.33301 16 -14 35 -14 57v224zM2435 1980h159v-60h-56v-268h-53v268h-55v55zM2621 1980l71 0.000976562
c4.66699 -2.66699 32.334 -86.334 83 -251.001h2l80 251h73v-328h-54v242h-2l-74 -242h-44c-2.66699 0 -22 60.667 -58 182l-19 60h-3v-242h-55v328zM3760 1980l52 -0.000976562v-328h-45l-5 5v11l3 2l-3 14c-19.333 -26.667 -45.333 -40 -78 -40
c-44.667 0 -78 30.333 -100 91l-5 39v3c0 62.667 30.667 104.334 92 125.001l23 3c23.333 0 44.333 -10.667 63 -32h3v107zM2057 1928l36 0.00195312l4 -6v-49h-45v-221h-48v23c-15.333 -20.667 -35 -31 -59 -31c-59.333 9.33301 -89 41.666 -89 96.999v156h51v-104

<glyph glyph-name=".notdef" horiz-adv-x="5040" 
d="M3351 2045h10c24.667 -6.66699 37 -24 37 -52c0 -8 -10.667 -27 -32 -57h-28c0 16 9.33301 34 28 54l2 10c-3.33301 8.66699 -6.66602 13.667 -10 15h-9c-5.33301 0 -8.66602 -6.33301 -10 -19h-30c4 32.667 18 49 42 49zM2019 2016l29.001 -31
c0 -10.667 -13.333 -20.667 -40 -30h-19l-59 12l-11 -12l-28 25c7.33301 19.333 21.666 29 42.999 29h11l42 -11h2c6.66699 0 16.667 6 30 18zM468.001 1980h142v-60h-94v-75h89v-59h-89v-129l-5 -5h-49v323zM1155 1980h43l6 -5v-78h30v-52h-30v-188l-6 -5h-49v193h-25v52
h25v78zM1621 1980h41.999l4 -5v-94h3c15.333 16 33.333 24 54 24h2c38.667 0 66.334 -23.667 83.001 -71l2 -39v-143h-52v115c0 53.333 -14 80 -42 80h-7c-28.667 0 -43 -28.667 -43 -86v-109h-51v323zM2200 1980l49 -0.000976562l5 -5v-222c6.66699 -34 21.667 -51 45 -51
c29.333 4.66699 44 24.334 44 59.001v214l5 5h49v-216c0 -56.667 -22 -94 -66 -112c-10 -5.33301 -21.667 -8 -35 -8c-31.333 0 -58.666 18.333 -82 55c-9.33301 16 -14 35 -14 57v224zM2435 1980h159v-60h-56v-268h-53v268h-55v55zM2621 1980l71 0.000976562
c4.66699 -2.66699 32.334 -86.334 83 -251.001h2l80 251h73v-328h-54v242h-2l-74 -242h-44c-2.66699 0 -22 60.667 -58 182l-19 60h-3v-242h-55v328zM3760 1980l52 -0.000976562v-328h-45l-5 5v11l3 2l-3 14c-19.333 -26.667 -45.333 -40 -78 -40
c-44.667 0 -78 30.333 -100 91l-5 39v3c0 62.667 30.667 104.334 92 125.001l23 3c23.333 0 44.333 -10.667 63 -32h3v107zM2057 1928l36 0.00195312l4 -6v-49h-45v-221h-48v23c-15.333 -20.667 -35 -31 -59 -31c-59.333 9.33301 -89 41.666 -89 96.999v156h51v-104
c0 -52.667 8.66699 -81.334 26 -86.001l18 -5h6c17.333 0 30.333 12 39 36l3 26v133h53v25zM3476 1928v-55h-31v-221h-47v25h-2c-10 -22 -29 -33 -57 -33c-45.333 0 -74 26 -86 78l-3 29v146h52v-120c0 -33.333 6.33301 -56 19 -68l21 -7h9c28 0 42 23 42 69v126h27
c2.66699 0 4 9.33301 4 28l3 3h49zM758 1905c45.333 0 79.667 -25.667 103 -77c6 -12 10 -30 12 -54c0 -58.667 -30 -101 -90 -127l-32 -3c-42 0 -75.667 24.333 -101 73c-8 14.667 -12 32 -12 52v10c0 62.667 33.667 104.667 101 126h19zM1011 1905h3
c49.333 0 77 -33.667 83 -101v-152h-51v119c0 50.667 -14 76 -42 76h-5c-29.333 0 -44 -25.333 -44 -76v-119h-52v245h46v-21c20 19.333 40.667 29 62 29zM1466 1905l7 -0.000976562c48 0 83 -29.667 105 -89h-60c-10.667 20.667 -24.667 31 -42 31h-17
c-35.333 -9.33301 -53 -29.666 -53 -60.999l-3 -15c8 -46 28.333 -69 61 -69h9c14.667 0 30.334 9 47.001 27h40l2 3h3l2 -3l2 3l3 -3l2 3l2 -7c-22 -54 -58.667 -81 -110 -81c-50.667 0 -87.334 31.333 -110.001 94l-4 36v3c0 56.667 25.667 96.667 77 120
c10 5.33301 22.333 8 37 8zM3141 1905h1.99902c32.667 0 56 -20 70 -60v-14h-52c0 10.667 -5.33301 16 -16 16h-4c-9.33301 0 -15.666 -4.33301 -18.999 -13v-13c0 -6 22.667 -17.667 68 -35c20 -12.667 30 -32.334 30 -59.001c0 -38.667 -20.333 -65.334 -61 -80.001
l-23 -3c-50.667 8 -76 35.667 -76 83h54c0 -13.333 9 -21.666 27 -24.999h4c12.667 0 20.667 7.66699 24 23c0 14.667 -22.667 29.334 -68 44.001c-22.667 18 -34 37.667 -34 59c0 44 24.667 69.667 74 77zM4203 1905c36.666 0 62.333 -21 77 -63
c4.66602 -12 7 -33.667 7 -65v-125h-52v112c0 55.333 -13.334 83 -40 83h-11c-22 0 -35.334 -18 -40 -54v-141h-52v5h-2l2 2v238h47v-21c16.666 19.333 38 29 64 29zM4432 1905h5c26.666 0 49.666 -13.333 69 -40v18l-3 3l3 11h47v-208c0 -64.667 -28.334 -108.667 -85 -132
l-33 -4h-7c-46.666 0 -81.333 26.667 -104 80h59c16 -14.667 31 -22.334 45 -23.001h13c14.666 0 29 7.33301 43 22c10 8.66699 17.334 26 22 52h-3c-21.334 -26.667 -45.667 -40 -73 -40c-38 0 -70 23.333 -96 70c-6.66602 12 -11.333 33 -14 63
c0 58.667 29 100.334 87 125.001zM3851 1897l53 -0.000976562v-136c4 -39.333 17.333 -59 40 -59h7c30.667 0 46 31 46 93v102h51v-245h-47l-3 10h3l-3 3v5l3 2v3h-4c0 -15.333 -19 -25.666 -57 -30.999h-3c-39.333 0 -67.333 25 -84 75l-2 85v93zM690 1771
c6.66699 -46 27.6689 -69 63.002 -69h7c39.333 9.33301 59 31 59 65v15c-8.66699 43.333 -28.334 65 -59.001 65h-5c-38.667 0 -60.334 -25.333 -65.001 -76zM3630 1774c8.66699 -48 29 -72 61 -72h5c38.667 0 60.667 25 66 75c0 32.667 -17 56 -51 70h-22
c-24.667 0 -43.334 -19 -56 -57zM4374 1774c5.33398 -48 27 -71.999 65 -71.999h5c39.334 8 59 32 59 72c0 40.667 -19.666 65 -59 73h-14c-37.334 -10.667 -56 -31.334 -56 -62.001v-11zM3928 1620h52v-57h-52v57zM1054 1402c28.667 -7.33301 43 -23.667 43 -49v-4
c0 -11.333 -10.667 -31.333 -32 -60h-28c0 16.667 10.333 35.667 31 57v7c0 8 -2.33301 13 -7 15h-12c-6.66699 -2.66699 -10 -9 -10 -19h-28v6c0 21.333 11 36 33 44zM3349 1339c61.333 0 107.333 -33.001 138 -99.001h-60c-24.667 28 -51.334 42 -80 42
c-36.667 0 -65.667 -22.667 -87 -68c-6.66699 -14.667 -10 -30.334 -10 -47.001c0 -52 27 -88.667 81 -110l18 -1c24 0 49 13 75 39h61c-29.333 -64.667 -75.333 -97 -138 -97c-62 0 -109 37.333 -141 112c-6.66699 20.667 -10 41.334 -10 62.001
c0 64.667 30 115.334 90 152.001c19.333 10 40.333 15 63 15zM3664 1339c38 0 72.333 -15.666 103 -46.999c30.667 -34 46 -72.333 46 -115v-20c0 -59.333 -30.333 -108 -91 -146c-22 -8.66699 -43 -13 -63 -13c-59.333 0 -105.333 33.667 -138 101
c-8.66699 22 -13 42 -13 60v18c0 65.333 32.667 115.666 98 150.999c19.333 7.33301 38.666 11 58 11zM2261 1337h2l47 -11h3c7.33301 0 16 3.66699 26 11l18 -36c-12 -12.667 -23.667 -19 -35 -19h-3l-54 10l-20 -7l-20 36c12 10.667 24 16 36 16zM716.002 1334h19
c78.667 0 121.667 -8.66699 129 -26c16.667 -17.333 25 -38 25 -62c-6.66699 -38 -16.667 -57 -30 -57v-6c31.333 -15.333 47 -37.333 47 -66v-18c0 -42 -23 -71.333 -69 -88l-54 -5h-67v328zM2550 1334h53v-217c4 -40.667 19 -61 45 -61c19.333 0 34 13 44 39l3 30v203l4 6
h45l5 -6v-171c0 -78.667 -13.333 -123 -40 -133c-16 -17.333 -37.333 -26 -64 -26c-36.667 0 -67 25.333 -91 76l-4 54v206zM2805 1334h59c2.66699 0 43.334 -79 122 -237h4v237h50l4 -6v-322h-58c-19.333 32 -61 111.333 -125 238h-3v-238h-53v328zM3101 1334h54v-328h-54
v328zM3859 1334l8 0.000976562c103.333 0 161.333 -13.333 174 -40c15.333 -7.33301 31 -32.333 47 -75l4 -36v-11l3 -2c0 -62.667 -27.333 -112.334 -82 -149.001c-23.333 -10 -56.333 -15 -99 -15h-55v328zM4141 1334h153v-60h-103v-75h101v-57h-101v-74l4 -5h99v-57h-157
v322zM3563 1175v-10c0 -50.667 26.333 -86.667 79 -108l19 -1c45.333 0 77.333 28.667 96 86l3 20v15c0 40.667 -20 72 -60 94c-8 5.33301 -21 9 -39 11c-44 0 -76 -27.667 -96 -83zM770.002 1274v-67h9c36 0 54 9.33301 54 28l3 14c-7.33301 16.667 -17 25 -29 25h-37z
M3912 1274v-206.001l2 -3v-2c69.333 0 110 25.333 122 76l2 15v29c0 22.667 -10.667 45.334 -32 68.001c-16.667 15.333 -42.667 23 -78 23h-16zM1041 1259h5c25.333 0 49 -13.333 71 -40v32h49v-245h-49v32c-24 -26.667 -50.667 -40 -80 -40c-50 0 -83.667 32.333 -101 97
l-5 36c0 59.333 28.333 101 85 125zM1314 1259h3c49.333 0 77 -34 83 -102v-151h-51v128c0 44.667 -14 67 -42 67h-10c-22.667 0 -35.667 -20.667 -39 -62v-133h-52v245h47v-21c18.667 19.333 39 29 61 29zM1543 1259h5c30 0 53.667 -13.333 71 -40v32h47v-219
c0 -63.333 -34.667 -105.333 -104 -126h-16c-49.333 0 -85.333 27.333 -108 82h59c17.333 -16.667 32 -25 44 -25h14c34.667 0 56 25.667 64 77c-22 -28 -47.333 -42 -76 -42c-40 0 -73.667 27 -101 81l-7 44v16c0 52.667 28.333 91.667 85 117zM1912 1259l2 0.000976562
c28.667 0 49 -12.333 61 -37h2c21.333 24.667 44.333 37 69 37h4c38 0 64.333 -18.333 79 -55c5.33301 -16.667 8 -31.667 8 -45v-153h-52v138c0 29.333 -7.66699 47.666 -23 54.999l-12 2h-15c-21.333 0 -33.333 -21.667 -36 -65v-130h-52v136c0 39.333 -14.333 59 -43 59
h-8c-21.333 0 -33.333 -19 -36 -57v-138h-54v245h50v-21h2c4 16 22 25.667 54 29zM2282 1259c31.333 0 56.333 -14 75 -42v34h47v-245h-47v32c-24 -26.667 -50 -40 -78 -40c-49.333 0 -83.333 30.667 -102 92l-6 41c0 60 28.333 101.667 85 125zM985.002 1117
c0 -32 20.333 -52.333 61 -61h4c30 0 50.667 15.333 62 46l3 15v22c-8 41.333 -27 62 -57 62h-14c-27.333 0 -47 -19 -59 -57v-27zM1487 1128c0 -32 14.332 -54.667 42.999 -68l18 -4h5c31.333 0 52.333 19 63 57v23c-7.33301 43.333 -26.666 65 -57.999 65h-12
c-33.333 0 -53 -24.333 -59 -73zM2225 1131v-14.001c10 -40.667 29 -61 57 -61h14c38.667 8 58 29.333 58 64v11c0 30 -12.333 51.667 -37 65l-18 5h-10c-42.667 -5.33301 -64 -28.666 -64 -69.999zM770.001 1150v-82c0 -3.33301 2.33301 -5 7 -5c51.333 0 77 15 77 45
c0 22.667 -15.667 36.667 -47 42h-37zM2966 752.999l24 -28l-51 -55c-12 8 -21 16.667 -27 26zM1524 726.999l85 -54c0 -10 -7 -24 -21 -42l-87 54c12 27.333 19.667 41.333 23 42zM2850 692.999h38l55 -60h-54l-21 26l-23 -26h-54c36 40 55.667 60 59 60zM3422 692.999h40
l56 -60h-54l-24 26h-1c0 -3.33301 -6.33301 -12 -19 -26h-54zM622.001 684.999l52 0.00195312c5.33301 -2.66699 21 -48.334 47 -137.001l34 -110c6 5.33301 17.333 38.666 34 99.999l48 147h54v-2l-112 -326h-44zM1159 685.001h51v-54h-51v54zM1354 685.001h46l6 -5v-323
h-52v328zM2317 685.001h45l4 -5v-78h31v-52h-31v-193h-53v193h-26v52h26v78zM2425 685.001h52v-98h2c15.333 15.333 33.333 23 54 23h3c38 0 65 -23.667 81 -71l3 -38v-144h-52v115c0 54 -13 81 -39 81h-10c-28 0 -42 -29 -42 -87v-109h-52v328zM2664 685.001h52v-54h-52v54
zM3028 685.001h44l6 -5v-78h29v-52h-29v-193h-54v193h-27v52h27v78zM3234 685.001h52v-328h-52v328zM3957 685.001h52v-328h-52v328zM4316 685.001h51v-54h-51v54zM1555 610.001h5c55.333 0 92 -34 110 -102l3 -23v-11c0 -55.333 -28.333 -95.333 -85 -120l-35 -5
c-50.667 0 -87.667 32.333 -111 97l-4 32c0 64.667 31 108 93 130zM1811 610.001h4c35.333 0 61.333 -20 78 -60c4.66699 -16.667 7 -43.667 7 -81v-112h-54v146c-4.66699 33.333 -17 50 -37 50h-10c-25.333 0 -39.333 -19 -42 -57v-139h-54v245h49v-21
c17.333 19.333 37 29 59 29zM2046 610.001h4.00098c30 0 51 -13 63 -39h3v31h49v-206c0 -68 -29.667 -113 -89 -135l-28 -3h-5c-48.667 0 -84 27 -106 81h52l37 -20l15 -3h14c33.333 0 53.666 24 60.999 72c-22 -26 -46.333 -39 -73 -39c-41.333 0 -74 25.333 -98 76
c-7.33301 15.333 -11.333 35.333 -12 60c0 56.667 28.667 97.667 86 123zM2866 610.001l2 -0.000976562c54.667 0 91.667 -34.667 111 -104l2 -25l-2 -27h-172c10 -30 25 -45 45 -45l14 -3c19.333 0 35.666 7.33301 49 22h57v-3c-23.333 -50.667 -59.333 -76 -108 -76
c-51.333 0 -88.333 32.333 -111 97l-1 28v8c0 32.667 10.667 62.334 32 89.001c22.667 26 50 39 82 39zM3429 610h5c27.333 0 50.666 -13 70 -39h2v31h47v-245h-47v31h-2c-23.333 -26 -49 -39 -77 -39c-47.333 0 -81 29.667 -101 89l-5 36v14c0 57.333 28 97.333 84 120z
M3711 610l7 -0.000976562c58.667 0 94.334 -42.667 107 -128l-2 -1v-15c0 -43.333 -22 -78.666 -66 -105.999c-14 -7.33301 -29.333 -11 -46 -11c-22.667 0 -44 10.667 -64 32v-99l-5 -5h-49v325h49v-28c20.667 24 43.667 36 69 36zM4151 609.999
c29.334 0 54.334 -13 75 -39v31h49v-245h-49v31c-23.334 -26 -49 -39 -77 -39c-61.333 0 -97.333 44 -108 132c0 56 24.333 96.333 73 121c10 5.33301 22.334 8 37 8zM922.002 601.999h50v-136c2 -40 16 -60 42 -60h5c29.333 0 44 29 44 87v109h52v-245h-47v24h-5
c0 -15.333 -18.667 -26 -56 -32h-3c-36.667 0 -64 22.667 -82 68c-2.66699 23.333 -4 56.333 -4 99v81zM1159 601.999h51v-245h-51v245zM2664 601.999h52v-245h-52v245zM4316 601.999h51v-245h-51v245zM1492 487.999v-15.999c8.66699 -44 28.334 -66 59.001 -66h4
c39.333 0 61.333 25.333 66 76c-8.66699 47.333 -28.334 71 -59.001 71h-11c-39.333 -10.667 -59 -32.334 -59 -65.001zM1987 472c10 -44 29.667 -66 59 -66h11c32 0 51.667 25 59 75v1c-8.66699 47.333 -28.334 71 -59 71h-14c-26 0 -44.667 -19 -56 -57v-24zM2805 506h122
v2c-10.667 30 -30.334 45 -59 45h-7c-23.333 0 -42 -15.667 -56 -47zM3373 474c8.66699 -45.333 29 -68 61 -68h5c34.667 0 56.334 21 65 63v12c-6.66699 48 -25.667 72 -57 72h-16c-37.333 -9.33301 -56 -30.333 -56 -63zM3642 478c8 -48 28.333 -72.001 61 -72.001h3
c33.333 0 55 20 65 60v22c0 28.667 -16.333 50.334 -49 65.001h-22c-31.333 0 -50.666 -24 -58 -72v-3zM4095 471.999c6.66602 -44 28.666 -66 66 -66c28.666 0 49 16 61 48l2 15v16c0 36 -17.334 58.667 -52 68h-18c-28 0 -47.666 -20 -59 -60v-21zM3416 320.999h51v-52
h-51v52zM4137 320.999h51v-52h-51v52zM2733 132.999h4c23.333 0 37.666 -16.667 43 -50v-2c0 -10.667 -8 -24.334 -24 -41.001l-10 -17h-28c0 16.667 9.33301 35.334 28 56.001l3 2v2c-2 12.667 -5 19 -9 19h-10c-5.33301 0 -8.33301 -6.33301 -9 -19h-30
c4 33.333 18 50 42 50zM1546 115.999l52 -60l-26 -19l-52 52zM352.002 78.999h4c50 -32 78.333 -52 85 -60l-20 -37c-58.667 32.667 -88 52 -88 58zM3490 78.999l86 -58l-18 -39c-6.66699 0 -37 18.333 -91 55c10 24 17.667 38 23 42zM4578 75.999l19 -42l-91 -52l-20 39
l92 58v-3zM1204 52.999h51v-19l5 -5h14v-36h-14l-5 -5v-279h-46v31c-22.667 -26.667 -49.667 -40 -81 -40c-48 0 -82 35 -102 105l-3 26c0 68 33.667 111.667 101 131h14c22 0 44 -11 66 -33v59l-6 5h-43v36h49v24zM1480 44.999h40l56 -61h-53l-23 27l-23 -27h-53z
M2641 44.999h33c8 0 29 -20.333 63 -61h-54l-23 27c-12.667 -14 -19 -23 -19 -27h-58v4zM49.002 36.999h160v-60h-56v-268h-50l-4 5v245l2 3v2l-2 2l2 3l-2 2l2 3l-2 3h-54v54zM699.002 36.999h47v-73l2 -2l-2 -3v-3l2 -2l-2 -3v-3l2 -2v-2l-2 -3l2 -3h3
c11.333 16 28.333 24 51 24h3c35.333 0 61 -19.333 77 -58c4.66699 -11.333 7 -25.333 7 -42v-153h-52v127c0 45.333 -13.333 68 -40 68h-8c-28.667 0 -43 -28.667 -43 -86v-109h-52v322zM1297 36.999h47l5 -6v-49h-52v55zM1987 36.999h52v-198l70 115h62l-78 -118l90 -125
v-2h-70c-6.66699 14.667 -31.334 53 -74 115v-115h-52v328zM2271 36.999v-98.999c16 16 33.667 24 53 24c38 0 64.667 -18.667 80 -56c6.66699 -12.667 10 -38.334 10 -77.001v-120h-54v133c0 41.333 -13.667 62 -41 62h-11c-20.667 0 -33 -18.333 -37 -55v-140h-53v314
l-1 3v3l1 2l-1 3l1 3h53zM2458 37h51v-55h-51v55zM3148 37h51v-108c18 22 40.667 33 68 33h3c50 0 85 -31.333 105 -94l5 -37c0 -50 -21.333 -90 -64 -120c-20 -7.33301 -36.333 -11 -49 -11c-27.333 0 -51.333 13.333 -72 40v-31h-47v328zM4275 37h52v-99h2
c15.334 16 33.334 24 54 24h3c40 0 67.334 -24.667 82 -74l2 -41v-138h-52v111c0 54.667 -10.666 82 -32 82l-10 2h-12c-24.666 0 -37 -26.667 -37 -80v-115h-52v328zM329.002 -38h3v-58h-5c-28 0 -42 -19 -42 -57v-138h-53v245h47v-21c12 19.333 28.667 29 50 29z
M564.002 -38c47.333 0 75.999 -29 85.999 -87v-166h-51v136c-4 39.333 -17.667 59 -41 59h-6c-30 0 -45 -28 -45 -84v-111h-52v245h50v-21c16.667 19.333 36.334 29 59.001 29zM1504 -38c48 0 83 -31.333 105 -94l5 -39c-1.33301 -16 -3.66602 -24 -6.99902 -24h-169
c11.333 -31.333 32 -47 62 -47c16 0 32 7 48 21h57c-22 -52.667 -58 -79 -108 -79c-54.667 0 -92.334 35 -113.001 105v37c0 54 29.667 93 89 117zM2657 -38h5c51.333 0 87 -32.333 107 -97l3 -26v-21l-3 -13h-170c12 -31.333 29.667 -47 53 -47h12c14 0 28 7 42 21h59
c-22.667 -52.667 -57.667 -79 -105 -79c-56 0 -94.333 34 -115 102l-2 29c0 62 30.333 104.667 91 128zM2915 -38h3.99902c36 0 62 -20 78 -60c4.66699 -16.667 7 -44 7 -82v-111h-54v138c0 32 -11.667 51 -35 57h-11c-25.333 0 -39.666 -19 -42.999 -57v-138h-54v245h50
v-21c16.667 19.333 36 29 58 29zM3508 -38h6c26.667 0 50 -13.333 70 -40h2v32h47v-245h-47v31h-2c-22.667 -26.667 -48.667 -40 -78 -40c-47.333 0 -81 30 -101 90l-4 37v12c0 54.667 25.667 93.667 77 117c7.33301 4 17.333 6 30 6zM3781 -38h4
c41.333 0 68.666 -26 82 -78l3 -84v-91h-54v138c0 32 -12.667 51 -38 57h-9c-25.333 0 -39.333 -17.333 -42 -52v-143h-54v245h49v-21c17.333 19.333 37 29 59 29zM4133 -38h1c49.334 0 84 -31 104 -93l4 -40c0 -58.667 -28 -100.667 -84 -126l-25 -3
c-27.333 0 -50 11.333 -68 34v-106h-52v326h47v-29c20 24.667 44.334 37 73 37zM4714 -38h5c22.666 0 43.666 -12.333 63 -37c18 24.667 41 37 69 37h6c37.334 0 63.667 -22 79 -66l6 -51v-136h-52v122c0 48.667 -13 73 -39 73h-7c-23.334 0 -37 -16.667 -41 -50v-140l-5 -5
h-48v140c0 28 -10.334 46.333 -31 55h-17c-26.666 0 -40 -25.667 -40 -77v-118h-51v245h47v-21c14.666 19.333 33.333 29 56 29zM359 -46h49l5 -6v-234l-5 -5h-49v245zM1297 -46h52v-245h-52v245zM1649 -46h52v-136c2.66699 -40 17 -60 43 -60h4c29.333 0 44 27 44 81v115
h52v-245h-47v24h-5c-8 -22 -27.667 -33 -59 -33c-34.667 0 -61 21 -79 63c-3.33301 8 -5 19.333 -5 34v157zM2458 -46h51v-245h-51v245zM4515 -46h51v-245h-51v245zM1077 -169c0 -35.333 16.999 -59.666 50.999 -72.999h12c36 0 58 22 66 66v10
c0 35.333 -18 58.666 -54 69.999h-17c-25.333 0 -44.666 -19 -57.999 -57v-16zM1438 -143h122.001c-12 31.333 -29.667 47 -53 47h-7c-28.667 0 -49.334 -14.667 -62.001 -44v-3zM2599 -143h122c-14 31.333 -32 47 -54 47h-7c-30.667 0 -51 -15.667 -61 -47zM3196 -158v-11
c6.66699 -48.667 27 -73 61 -73h5c42.667 5.33301 64 29 64 71v5c0 30 -12.667 51.667 -38 65l-18 5h-14c-40 -9.33301 -60 -30 -60 -62zM3452 -173c9.33301 -46 30 -69 62 -69h11c27.333 0 47 20 59 60v13c-5.33301 48.667 -24 73 -56 73h-17
c-31.333 0 -51 -24.333 -59 -73v-4zM4062 -158v-22c0 -31.333 19.667 -52 59 -62h9c33.334 0 53.667 25.333 61 76c-8.66602 46.667 -28 70 -58 70h-15c-37.333 -11.333 -56 -32 -56 -62z" />
    <glyph glyph-name="space" unicode=" " horiz-adv-x="317" 
 />
    <glyph glyph-name="exclam" unicode="!" horiz-adv-x="389" 
d="M110 317l-29 519v598h225v-598l-28 -519h-168zM302 217v-217h-217v217h217z" />
    <glyph glyph-name="quotedbl" unicode="&#x22;" horiz-adv-x="665" 
d="M81 1434h217l-33 -422h-153zM366 1434h217l-33 -422h-154z" />
    <glyph glyph-name="numbersign" unicode="#" horiz-adv-x="839" 
d="M448 410h-133l-43 -410h-185l43 410h-100l16 159h101l39 375h-103l17 160h102l35 330h184l-35 -330h133l35 330h185l-35 -330h104l-16 -160h-105l-39 -375h105l-16 -159h-105l-43 -410h-184zM331 569h133l39 375h-133z" />
    <glyph glyph-name="dollar" unicode="$" 
d="M313 1419l-0.000976562 107.001h184v-107c161.333 -32.667 242 -149.334 242 -350.001v-55h-213v69c0 94.667 -37.667 142 -113 142s-113 -47.333 -113 -142c0 -64.667 23 -124.334 69 -179.001c18 -20.667 41.667 -44 71 -70l60 -50l21 -17
c33.333 -28 60 -52.333 80 -73c28.667 -28.667 52.334 -57.334 71.001 -86.001c46 -70.667 69 -151.667 69 -243c0 -202 -81.333 -319.667 -244 -353v-104h-184v104c-162.667 33.333 -244 151 -244 353v118h213v-133c0 -92.667 39 -139 117 -139
c77.333 0 116 46.333 116 139c0 64.667 -22.667 124.334 -68 179.001c-18 21.333 -41.667 44.666 -71 69.999l-81 68c-33.333 27.333 -60.333 51.333 -81 72c-28 28.667 -51.333 57.334 -70 86.001c-46 70.667 -69 152 -69 244c0 198.667 79.333 315.334 238 350.001z" />
    <glyph glyph-name="percent" unicode="%" horiz-adv-x="1284" 
d="M212 733c0 -60 24.667 -90 74 -90s74 30 74 90v492c0 60 -24.667 90 -74 90s-74 -30 -74 -90v-492zM69 1214c0 153.333 72.333 230 217 230s217 -76.667 217 -230v-471c0 -152.667 -72.333 -229 -217 -229s-217 76.333 -217 229v471zM851 1434h133l-565 -1434h-133z
M923 203c0 -60 24.667 -90 74 -90c48.667 0 73 30 73 90v491c0 60 -24.333 90 -73 90c-49.333 0 -74 -30 -74 -90v-491zM780 684c0 152.667 72.333 229 217 229s217 -76.333 217 -229v-471c0 -152.667 -72.333 -229 -217 -229s-217 76.333 -217 229v471z" />
    <glyph glyph-name="ampersand" unicode="&#x26;" horiz-adv-x="847" 
d="M83 457c0 154.667 52 255.001 156 301.001c-104 44 -156 142.333 -156 295v26c0 236.667 112 355 336 355h258v-205h-254c-76.667 0 -115 -46.333 -115 -139v-89c0 -100.667 45 -151 135 -151h99v160h225v-160h59v-205h-59v-471c0 -77.333 8.33301 -135.333 25 -174h-230
l-12 43c-3.33301 17.333 -6 40.666 -8 69.999c-40 -86 -109.667 -129 -209 -129c-166.667 0 -250 109 -250 327v146zM308 330.001c0 -94.667 39 -142 117 -142c74 0 113 41.667 117 125v332h-86c-98.667 0 -148 -60.667 -148 -182v-133z" />
    <glyph glyph-name="quotesingle" unicode="'" horiz-adv-x="368" 
d="M75 1434h217l-33 -422h-153z" />
    <glyph glyph-name="parenleft" unicode="(" horiz-adv-x="514" 
d="M481 1434v-185h-55c-70 0 -105 -43 -105 -129v-807c0 -86 35 -129 105 -129h55v-184h-70c-210 -0 -315 104.333 -315 313v807c0 209.333 105 314 315 314h70z" />
    <glyph glyph-name="parenright" unicode=")" horiz-adv-x="514" 
d="M102 1434c210 0 315 -104.667 315 -314v-807c0 -208.667 -105 -313 -315 -313h-70v184h55c70 0 105 43 105 129v807c0 86 -35 129 -105 129h-55v185h70z" />
    <glyph glyph-name="asterisk" unicode="*" 
d="M366 1096l-53 338h185l-54 -338l305 153l58 -174l-336 -57l240 -240l-148 -108l-158 303l-157 -303l-148 108l240 240l-336 57l57 174z" />
    <glyph glyph-name="plus" unicode="+" 
d="M739 516v-160h-668v160h254v164h-254v160h254v233h160v-233h254v-160h-254v-164h254z" />
    <glyph glyph-name="comma" unicode="," horiz-adv-x="380" 
d="M81 0v217h217v-194l-98 -228h-92l59 205h-86z" />
    <glyph glyph-name="hyphen" unicode="-" horiz-adv-x="552" 
d="M71 819h410v-205h-410v205z" />
    <glyph glyph-name="hyphen" unicode="&#x2010;" horiz-adv-x="552" 
d="M71 819h410v-205h-410v205z" />
    <glyph glyph-name="period" unicode="." horiz-adv-x="380" 
d="M298 217v-217h-217v217h217z" />
    <glyph glyph-name="slash" unicode="/" horiz-adv-x="780" 
d="M575 1434h195l-565 -1434h-195z" />
    <glyph glyph-name="zero" unicode="0" 
d="M288 330c0 -94.667 39 -142 117 -142s117 47.333 117 142v774c0 94 -39 141 -117 141s-117 -47 -117 -141v-774zM63 1090c0 240 114 360 342 360s342 -120 342 -360v-746c0 -240 -114 -360 -342 -360s-342 120 -342 360v746z" />
    <glyph glyph-name="one" unicode="1" 
d="M221 1253c78.667 0 137.333 18 176 54c26 24 50 66.333 72 127h151v-1434h-225v1094h-174v159z" />
    <glyph glyph-name="two" unicode="2" 
d="M411 1245c-78 0 -116.998 -46.9971 -116.998 -140.997v-154h-213v140c0 240 112 360 336 360s336 -120 336 -360c0 -106 -25.333 -206.667 -76 -302c-20.667 -38.667 -46.334 -78.334 -77.001 -119.001c-22.667 -30.667 -51.667 -65.334 -87 -104.001l-84 -94
c-30.667 -34 -54.334 -63.333 -71.001 -88c-44 -64 -61.333 -123.333 -52 -178h426v-205h-651v176c0 94 23.333 181 70 261c18.667 32.667 42.334 66.667 71.001 102l82 93l42 46c15.333 16.667 28.666 32 39.999 46c29.333 35.333 53.333 69 72 101
c46 79.333 69 164.666 69 255.999c0 109.333 -38.667 164 -116 164z" />
    <glyph glyph-name="three" unicode="3" 
d="M515 1081c0 109.333 -38.667 163.999 -116 163.999c-78 0 -117 -47 -117 -141v-92h-213v78c0 240 112 360 336 360s336 -120 336 -360v-37c0 -153.333 -52.667 -251.666 -158 -294.999c105.333 -46 158 -146.333 158 -301v-113c0 -240 -112 -360 -336 -360
s-336 120 -336 360v119h213v-133c0 -94.667 39 -142 117 -142c77.333 0 116 54 116 162v113c0 121.333 -49 182 -147 182h-76v205h88c90 0 135 50.333 135 151v80z" />
    <glyph glyph-name="four" unicode="4" 
d="M28 465l410 969h245v-969h107v-205h-107v-260h-225v260h-430v205zM458 465v530l-223 -530h223z" />
    <glyph glyph-name="five" unicode="5" 
d="M284 463l-0.000976562 -133c0 -93.333 39 -140 117 -140c77.333 0 116 46.667 116 140v315c0 94 -38.667 141 -116 141c-78 0 -117 -47 -117 -141v-43h-213l41 832h594v-205h-391l-19 -342c42.667 69.333 108.334 104 197.001 104c166.667 0 250 -109 250 -327v-320
c0 -240 -112 -360 -336 -360s-336 120 -336 360v119h213z" />
    <glyph glyph-name="six" unicode="6" 
d="M67 1077c0 248.667 114.666 373 343.999 373c224 0 336 -120 336 -360v-37h-213v51c0 94 -39 141 -117 141c-83.333 0 -125 -58.667 -125 -176v-262c40.667 84.667 110.334 127 209.001 127c166.667 0 250 -109.333 250 -328v-262c0 -240 -114 -360 -342 -360
s-342 120 -342 360v733zM291.999 588v-258c0 -93.333 39 -140 117 -140s117 46.667 117 140v258c0 94 -39 141 -117 141s-117 -47 -117 -141z" />
    <glyph glyph-name="seven" unicode="7" 
d="M743 1434v-197l-332 -1237h-225l330 1229h-449v205h676z" />
    <glyph glyph-name="eight" unicode="8" 
d="M758 344c0 -240 -117.667 -360 -353 -360c-234.667 0 -352 120 -352 360v113c0 146.667 46.333 246.334 139 299.001c-92.667 50 -139 146 -139 288v46c0 240 117.333 360 352 360c235.333 0 353 -120 353 -360v-46c0 -140.667 -46.667 -236.667 -140 -288
c93.333 -52.667 140 -152.334 140 -299.001v-113zM278 350c0 -108 42.334 -162 127.001 -162c83.333 0 125.666 54 126.999 162v133c0 108 -42.333 162 -127 162s-127 -54 -127 -162v-133zM278.001 1001c0 -100.667 42.333 -151 127 -151s127 50.333 127 151v80
c0 109.333 -42.333 164 -127 164s-127 -54.667 -127 -164v-80z" />
    <glyph glyph-name="nine" unicode="9" 
d="M743 356c0 -248 -114.666 -372 -343.999 -372c-224 0 -336 120 -336 360v37h213v-51c0 -94.667 39 -142 117 -142c83.333 0 125 59 125 177v262c-40.667 -84.667 -110.334 -127 -209.001 -127c-166.667 0 -250 109 -250 327v263c0 240 114 360 342 360s342 -120 342 -360
v-734zM518.001 846v258c0 92.667 -39 139 -117 139s-117 -46.333 -117 -139v-258c0 -94 39 -141 117 -141s117 47 117 141z" />
    <glyph glyph-name="colon" unicode=":" horiz-adv-x="380" 
d="M298 217v-217h-217v217h217zM298 997v-217h-217v217h217z" />
    <glyph glyph-name="semicolon" unicode=";" horiz-adv-x="380" 
d="M81 0v217h217v-194l-98 -228h-92l59 205h-86zM298 997v-217h-217v217h217z" />
    <glyph glyph-name="less" unicode="&#x3c;" 
d="M61 637v160l668 245v-161l-459 -164l459 -164v-162z" />
    <glyph glyph-name="equal" unicode="=" 
d="M739 631v-160h-668v160h668zM739 963v-160h-668v160h668z" />
    <glyph glyph-name="greater" unicode="&#x3e;" 
d="M81 391v162l459 164l-459 164v161l668 -245v-160z" />
    <glyph glyph-name="question" unicode="?" horiz-adv-x="737" 
d="M245 317c-8 24.667 -12.001 54.334 -12.001 89.001c0 69.333 12.667 133 38 191c10 22.667 23 47 39 73l91 139c15.333 27.333 28.333 53.666 39 78.999c25.333 64.667 38 136.667 38 216c0 94 -37.333 141 -112 141c-75.333 0 -113 -47 -113 -141v-156h-213v142
c0 240 110.667 360 332 360s332 -120 332 -360c0 -84 -14 -160.333 -42 -229c-11.333 -28 -25.666 -56.333 -42.999 -85c-12 -21.333 -28.333 -46 -49 -74l-12 -17l-36 -52c-18 -25.333 -32.333 -48.333 -43 -69c-28 -53.333 -42 -109 -42 -167c0 -29.333 3 -56 9 -80h-201z
M451.999 217v-217h-217v217h217z" />
    <glyph glyph-name="at" unicode="@" horiz-adv-x="1411" 
d="M794 395c-41.333 -86 -107.331 -127.001 -197.998 -123.001c-144 4.66699 -205.667 110 -185 316l23 207c21.333 208 104.666 309 249.999 303c84 -2 140 -44.333 168 -127l12 119h197l-62 -592c-4 -34.667 9.66699 -52 41 -52c53.333 0 95 51.333 125 154
c26 87.333 39 190.333 39 309c0 134 -32.333 238 -97 312c-70 80 -173.333 120 -310 120c-180 0 -318.333 -67.667 -415 -203c-93.333 -132 -140 -316.667 -140 -554c0 -169.333 38.667 -299.666 116 -390.999c81.333 -96 201.666 -144 360.999 -144
c81.333 0 153 9.33301 215 28c71.333 22 141 59 209 111l-17 -196c-64 -42.667 -132 -73 -204 -91c-62 -16 -134 -24 -216 -24c-221.333 0 -388.333 66.667 -501 200c-104 122.667 -156 295 -156 517c0 266.667 62.667 483.334 188 650.001c136 181.333 325.333 272 568 272
c202 0 350.667 -59 446 -177c82 -101.333 123 -243.333 123 -426c0 -118.667 -13.333 -223.334 -40 -314.001c-24 -80 -57.333 -147 -100 -201c-38 -47.333 -81.333 -83 -130 -107c-42.667 -20.667 -85.667 -31 -129 -31c-112.667 0 -173 45 -181 135zM610.002 597.999
c-9.33301 -88 20.001 -133 88.001 -135c67.333 -2 105.666 41 114.999 129l20 194c8 76.667 -21.333 115 -88 115c-68 2 -106.667 -41 -116 -129z" />
    <glyph glyph-name="A" unicode="A" horiz-adv-x="833" 
d="M810 0h-227l-39 260h-276l-39 -260h-207l229 1434h330zM296 455h218l-109 725z" />
    <glyph glyph-name="B" unicode="B" horiz-adv-x="831" 
d="M421 1434c222.667 0 334 -110.001 334 -330.001v-51c0 -147.333 -48.667 -243.666 -146 -288.999c112 -44 168 -146.333 168 -307v-117c0 -226.667 -114 -340 -342 -340h-354v1434h340zM306 644.999v-440h129c78 0 117 47 117 141v125c0 116 -48.333 174 -145 174h-101z
M306 1229v-379h88c90.667 0 136 50.333 136 151v80c0 98.667 -38.333 148 -115 148h-109z" />
    <glyph glyph-name="C" unicode="C" horiz-adv-x="790" 
d="M735 535v-191c0 -240 -112 -360 -336 -360s-336 120 -336 360v746c0 240 112 360 336 360s336 -120 336 -360v-140h-213v154c0 94 -39 141 -117 141s-117 -47 -117 -141v-774c0 -93.333 39 -140 117 -140s117 46.667 117 140v205h213z" />
    <glyph glyph-name="D" unicode="D" horiz-adv-x="835" 
d="M81 1434h356c224 0 336 -118.333 336 -355v-725c0 -236 -112 -354 -336 -354h-356v1434zM306 1229v-1024h127c76.667 0 115 46.333 115 139v746c0 92.667 -38.333 139 -115 139h-127z" />
    <glyph glyph-name="E" unicode="E" horiz-adv-x="753" 
d="M306 829h310v-204h-310v-420h389v-205h-614v1434h614v-205h-389v-400z" />
    <glyph glyph-name="F" unicode="F" horiz-adv-x="704" 
d="M306 797h291v-205h-291v-592h-225v1434h596v-205h-371v-432z" />
    <glyph glyph-name="G" unicode="G" horiz-adv-x="798" 
d="M419 799h316v-455c0 -240 -112 -360 -336 -360s-336 120 -336 360v746c0 240 112 360 336 360s336 -120 336 -360v-140h-213v154c0 94 -39 141 -117 141s-117 -47 -117 -141v-774c0 -93.333 39 -140 117 -140s117 46.667 117 140v264h-103v205z" />
    <glyph glyph-name="H" unicode="H" horiz-adv-x="874" 
d="M306 0h-225v1434h225v-615h256v615h230v-1434h-230v614h-256v-614z" />
    <glyph glyph-name="I" unicode="I" horiz-adv-x="389" 
d="M81 1434h225v-1434h-225v1434z" />
    <glyph glyph-name="J" unicode="J" horiz-adv-x="524" 
d="M20 205c10.667 -1.33301 23.667 -2 39 -2h39c86 0 129 45.667 129 137v1094h225v-1078c0 -132 -32.667 -227.667 -98 -287c-53.333 -48.667 -128.333 -73 -225 -73c-48 0 -84.333 1.33301 -109 4v205z" />
    <glyph glyph-name="K" unicode="K" horiz-adv-x="847" 
d="M374 580l-68 -119v-461h-225v1434h225v-652l314 652h206l-311 -637l311 -797h-231z" />
    <glyph glyph-name="L" unicode="L" horiz-adv-x="698" 
d="M81 1434h225v-1229h371v-205h-596v1434z" />
    <glyph glyph-name="M" unicode="M" horiz-adv-x="1107" 
d="M558 416l154 1018h313v-1434h-213v1028l-155 -1028h-213l-168 1014v-1014h-197v1434h313z" />
    <glyph glyph-name="N" unicode="N" horiz-adv-x="874" 
d="M282 1038v-1038h-203v1434h283l231 -859v859h201v-1434h-232z" />
    <glyph glyph-name="O" unicode="O" 
d="M288 330c0 -94.667 39 -142 117 -142s117 47.333 117 142v774c0 94 -39 141 -117 141s-117 -47 -117 -141v-774zM63 1090c0 240 114 360 342 360s342 -120 342 -360v-746c0 -240 -114 -360 -342 -360s-342 120 -342 360v746z" />
    <glyph glyph-name="P" unicode="P" horiz-adv-x="772" 
d="M413 1434c224 0 336 -118.333 336 -355v-186c0 -236 -112 -354 -336 -354h-107v-539h-225v1434h332zM306 1229v-486h107c73.333 0 110 45.333 110 136v215c0 90 -36.667 135 -110 135h-107z" />
    <glyph glyph-name="Q" unicode="Q" 
d="M63 1090c0 240 114.001 360 342.001 360s342 -120 342 -360v-746c0 -80.667 -14.333 -147.667 -43 -201c8 -20 29.333 -30 64 -30h20v-201h-31c-96.667 0 -161.334 32.667 -194.001 98c-49.333 -17.333 -102 -26 -158 -26c-228 0 -342 120 -342 360v746zM288.001 330
c0 -94.667 39 -142 117 -142s117 47.333 117 142v774c0 94 -39 141 -117 141s-117 -47 -117 -141v-774z" />
    <glyph glyph-name="R" unicode="R" horiz-adv-x="823" 
d="M552 0c-7.33301 22.667 -12.333 42 -15 58c-3.33301 26 -5 65.333 -5 118v225c0 122 -49.333 183 -148 183h-78v-584h-225v1434h340c222.667 0 334 -110 334 -330v-113c0 -147.333 -49.333 -244.333 -148 -291c100 -41.333 150 -143 150 -305v-221
c0 -77.333 8 -135.333 24 -174h-229zM306 1229v-441h88c90.667 0 136 50.667 136 152v141c0 98.667 -38.333 148 -115 148h-109z" />
    <glyph glyph-name="S" unicode="S" horiz-adv-x="765" 
d="M385 1450c221.333 0 331.999 -120.002 331.999 -360.002v-76h-213v90c0 94 -37.667 141 -113 141s-113 -47 -113 -141c0 -64.667 23 -126.667 69 -186c18 -22.667 41.667 -48 71 -76l60 -56l21 -19c33.333 -30.667 60 -57.334 80 -80.001
c28.667 -31.333 52.334 -62.333 71.001 -93c46 -74.667 69 -158 69 -250c0 -240 -112 -360 -336 -360s-336 120 -336 360v139h213v-153c0 -93.333 39 -140 117 -140c77.333 0 116 46.667 116 140c0 64.667 -22.667 126.334 -68 185.001
c-18 22.667 -41.667 48.334 -71 77.001l-81 75c-33.333 30.667 -60.333 57.334 -81 80.001c-28 31.333 -51.333 62 -70 92c-46 75.333 -69 159 -69 251c0 240 110.667 360 332 360z" />
    <glyph glyph-name="T" unicode="T" horiz-adv-x="737" 
d="M20 1434h696v-205h-235v-1229h-225v1229h-236v205z" />
    <glyph glyph-name="U" unicode="U" horiz-adv-x="815" 
d="M296 1434v-1106c0 -93.333 39 -140 117 -140s117 46.667 117 140v1106h213v-1092c0 -240 -112 -360 -336 -360s-336 120 -336 360v1092h225z" />
    <glyph glyph-name="V" unicode="V" horiz-adv-x="823" 
d="M421 264l172 1170h207l-221 -1434h-336l-221 1434h227z" />
    <glyph glyph-name="W" unicode="W" horiz-adv-x="1153" 
d="M581 764l-82 -764h-309l-160 1434h219l121 -1131l109 1131h217l112 -1139l117 1139h197l-160 -1434h-299z" />
    <glyph glyph-name="X" unicode="X" horiz-adv-x="880" 
d="M833 1434l-236 -697l252 -737h-237l-185 567l-186 -567h-211l252 737l-236 697h234l170 -529l174 529h209z" />
    <glyph glyph-name="Y" unicode="Y" 
d="M293 475l-285 959h236l172 -654l172 654h215l-285 -959v-475h-225v475z" />
    <glyph glyph-name="Z" unicode="Z" horiz-adv-x="757" 
d="M706 1434v-201l-428 -1028h428v-205h-659v201l428 1028h-408v205h639z" />
    <glyph glyph-name="bracketleft" unicode="[" horiz-adv-x="514" 
d="M96 1434h373v-185h-148v-1065h148v-184h-373v1434z" />
    <glyph glyph-name="backslash" unicode="\" horiz-adv-x="780" 
d="M770 0h-195l-565 1434h195z" />
    <glyph glyph-name="bracketright" unicode="]" horiz-adv-x="514" 
d="M418 0h-373v184h147v1065h-147v185h373v-1434z" />
    <glyph glyph-name="asciicircum" unicode="^" 
d="M325 1434h159l285 -635h-180l-184 430l-185 -430h-180z" />
    <glyph glyph-name="underscore" unicode="_" horiz-adv-x="1024" 
d="M0 -20h1024v-164h-1024v164z" />
    <glyph glyph-name="grave" unicode="`" horiz-adv-x="512" 
d="M303 1743l147 -240h-170l-221 240h244z" />
    <glyph glyph-name="a" unicode="a" horiz-adv-x="833" 
d="M810 0h-227l-39 260h-276l-39 -260h-207l229 1434h330zM296 455h218l-109 725z" />
    <glyph glyph-name="b" unicode="b" horiz-adv-x="831" 
d="M421 1434c222.667 0 334 -110.001 334 -330.001v-51c0 -147.333 -48.667 -243.666 -146 -288.999c112 -44 168 -146.333 168 -307v-117c0 -226.667 -114 -340 -342 -340h-354v1434h340zM306 644.999v-440h129c78 0 117 47 117 141v125c0 116 -48.333 174 -145 174h-101z
M306 1229v-379h88c90.667 0 136 50.333 136 151v80c0 98.667 -38.333 148 -115 148h-109z" />
    <glyph glyph-name="c" unicode="c" horiz-adv-x="790" 
d="M735 535v-191c0 -240 -112 -360 -336 -360s-336 120 -336 360v746c0 240 112 360 336 360s336 -120 336 -360v-140h-213v154c0 94 -39 141 -117 141s-117 -47 -117 -141v-774c0 -93.333 39 -140 117 -140s117 46.667 117 140v205h213z" />
    <glyph glyph-name="d" unicode="d" horiz-adv-x="835" 
d="M81 1434h356c224 0 336 -118.333 336 -355v-725c0 -236 -112 -354 -336 -354h-356v1434zM306 1229v-1024h127c76.667 0 115 46.333 115 139v746c0 92.667 -38.333 139 -115 139h-127z" />
    <glyph glyph-name="e" unicode="e" horiz-adv-x="753" 
d="M306 829h310v-204h-310v-420h389v-205h-614v1434h614v-205h-389v-400z" />
    <glyph glyph-name="f" unicode="f" horiz-adv-x="704" 
d="M306 797h291v-205h-291v-592h-225v1434h596v-205h-371v-432z" />
    <glyph glyph-name="g" unicode="g" horiz-adv-x="798" 
d="M419 799h316v-455c0 -240 -112 -360 -336 -360s-336 120 -336 360v746c0 240 112 360 336 360s336 -120 336 -360v-140h-213v154c0 94 -39 141 -117 141s-117 -47 -117 -141v-774c0 -93.333 39 -140 117 -140s117 46.667 117 140v264h-103v205z" />
    <glyph glyph-name="h" unicode="h" horiz-adv-x="874" 
d="M306 0h-225v1434h225v-615h256v615h230v-1434h-230v614h-256v-614z" />
    <glyph glyph-name="i" unicode="i" horiz-adv-x="389" 
d="M81 1434h225v-1434h-225v1434z" />
    <glyph glyph-name="j" unicode="j" horiz-adv-x="524" 
d="M20 205c10.667 -1.33301 23.667 -2 39 -2h39c86 0 129 45.667 129 137v1094h225v-1078c0 -132 -32.667 -227.667 -98 -287c-53.333 -48.667 -128.333 -73 -225 -73c-48 0 -84.333 1.33301 -109 4v205z" />
    <glyph glyph-name="k" unicode="k" horiz-adv-x="847" 
d="M374 580l-68 -119v-461h-225v1434h225v-652l314 652h206l-311 -637l311 -797h-231z" />
    <glyph glyph-name="l" unicode="l" horiz-adv-x="698" 
d="M81 1434h225v-1229h371v-205h-596v1434z" />
    <glyph glyph-name="m" unicode="m" horiz-adv-x="1107" 
d="M558 416l154 1018h313v-1434h-213v1028l-155 -1028h-213l-168 1014v-1014h-197v1434h313z" />
    <glyph glyph-name="n" unicode="n" horiz-adv-x="874" 
d="M282 1038v-1038h-203v1434h283l231 -859v859h201v-1434h-232z" />
    <glyph glyph-name="o" unicode="o" 
d="M288 330c0 -94.667 39 -142 117 -142s117 47.333 117 142v774c0 94 -39 141 -117 141s-117 -47 -117 -141v-774zM63 1090c0 240 114 360 342 360s342 -120 342 -360v-746c0 -240 -114 -360 -342 -360s-342 120 -342 360v746z" />
    <glyph glyph-name="p" unicode="p" horiz-adv-x="772" 
d="M413 1434c224 0 336 -118.333 336 -355v-186c0 -236 -112 -354 -336 -354h-107v-539h-225v1434h332zM306 1229v-486h107c73.333 0 110 45.333 110 136v215c0 90 -36.667 135 -110 135h-107z" />
    <glyph glyph-name="q" unicode="q" 
d="M63 1090c0 240 114.001 360 342.001 360s342 -120 342 -360v-746c0 -80.667 -14.333 -147.667 -43 -201c8 -20 29.333 -30 64 -30h20v-201h-31c-96.667 0 -161.334 32.667 -194.001 98c-49.333 -17.333 -102 -26 -158 -26c-228 0 -342 120 -342 360v746zM288.001 330
c0 -94.667 39 -142 117 -142s117 47.333 117 142v774c0 94 -39 141 -117 141s-117 -47 -117 -141v-774z" />
    <glyph glyph-name="r" unicode="r" horiz-adv-x="823" 
d="M552 0c-7.33301 22.667 -12.333 42 -15 58c-3.33301 26 -5 65.333 -5 118v225c0 122 -49.333 183 -148 183h-78v-584h-225v1434h340c222.667 0 334 -110 334 -330v-113c0 -147.333 -49.333 -244.333 -148 -291c100 -41.333 150 -143 150 -305v-221
c0 -77.333 8 -135.333 24 -174h-229zM306 1229v-441h88c90.667 0 136 50.667 136 152v141c0 98.667 -38.333 148 -115 148h-109z" />
    <glyph glyph-name="s" unicode="s" horiz-adv-x="765" 
d="M385 1450c221.333 0 331.999 -120.002 331.999 -360.002v-76h-213v90c0 94 -37.667 141 -113 141s-113 -47 -113 -141c0 -64.667 23 -126.667 69 -186c18 -22.667 41.667 -48 71 -76l60 -56l21 -19c33.333 -30.667 60 -57.334 80 -80.001
c28.667 -31.333 52.334 -62.333 71.001 -93c46 -74.667 69 -158 69 -250c0 -240 -112 -360 -336 -360s-336 120 -336 360v139h213v-153c0 -93.333 39 -140 117 -140c77.333 0 116 46.667 116 140c0 64.667 -22.667 126.334 -68 185.001
c-18 22.667 -41.667 48.334 -71 77.001l-81 75c-33.333 30.667 -60.333 57.334 -81 80.001c-28 31.333 -51.333 62 -70 92c-46 75.333 -69 159 -69 251c0 240 110.667 360 332 360z" />
    <glyph glyph-name="t" unicode="t" horiz-adv-x="737" 
d="M20 1434h696v-205h-235v-1229h-225v1229h-236v205z" />
    <glyph glyph-name="u" unicode="u" horiz-adv-x="815" 
d="M296 1434v-1106c0 -93.333 39 -140 117 -140s117 46.667 117 140v1106h213v-1092c0 -240 -112 -360 -336 -360s-336 120 -336 360v1092h225z" />
    <glyph glyph-name="v" unicode="v" horiz-adv-x="823" 
d="M421 264l172 1170h207l-221 -1434h-336l-221 1434h227z" />
    <glyph glyph-name="w" unicode="w" horiz-adv-x="1153" 
d="M581 764l-82 -764h-309l-160 1434h219l121 -1131l109 1131h217l112 -1139l117 1139h197l-160 -1434h-299z" />
    <glyph glyph-name="x" unicode="x" horiz-adv-x="880" 
d="M833 1434l-236 -697l252 -737h-237l-185 567l-186 -567h-211l252 737l-236 697h234l170 -529l174 529h209z" />
    <glyph glyph-name="y" unicode="y" 
d="M293 475l-285 959h236l172 -654l172 654h215l-285 -959v-475h-225v475z" />
    <glyph glyph-name="z" unicode="z" horiz-adv-x="757" 
d="M706 1434v-201l-428 -1028h428v-205h-659v201l428 1028h-408v205h639z" />
    <glyph glyph-name="braceleft" unicode="{" horiz-adv-x="526" 
d="M313 644c16.667 -28 26 -64.333 28 -109l11 -205c5.33301 -97.333 41.333 -146 108 -146h33v-184h-115c-141.333 0 -217 75.667 -227 227l-16 275c-5.33301 82 -43 123 -113 123v184c70 0 107.667 41 113 123l16 274c10 152 85.667 228 227 228h115v-185h-33
c-66.667 0 -102.667 -48.333 -108 -145l-11 -205c-2 -44.667 -11.333 -81 -28 -109c-22 -36.667 -57 -61 -105 -73c48 -12 83 -36.333 105 -73z" />
    <glyph glyph-name="bar" unicode="|" horiz-adv-x="1024" 
d="M430 1567h184v-1700h-184v1700z" />
    <glyph glyph-name="braceright" unicode="}" horiz-adv-x="526" 
d="M212 790c-16.667 28 -26 64.333 -28 109l-11 205c-5.33301 96.667 -41.333 145 -108 145h-33v185h115c141.333 0 217 -76 227 -228l16 -274c5.33301 -82 43 -123 113 -123v-184c-70 0 -107.667 -41 -113 -123l-16 -275c-10 -151.333 -85.667 -227 -227 -227h-115v184h33
c66.667 0 102.667 48.667 108 146l11 205c2 44.667 11.333 81 28 109c22 36.667 57 61 105 73c-48 12 -83 36.333 -105 73z" />
    <glyph glyph-name="asciitilde" unicode="~" 
d="M16 680c47.333 69.333 90.667 118.334 130 147.001c34.667 24.667 72.667 37 114 37c24.667 0 51.334 -6.33301 80.001 -19c19.333 -8.66699 44.333 -23 75 -43l36 -23c13.333 -8.66699 25 -15.334 35 -20.001c25.333 -13.333 47.666 -20 66.999 -20c34 0 79 39 135 117
l106 -111c-46 -68 -89 -115.333 -129 -142c-34 -22.667 -72 -34 -114 -34c-25.333 0 -52.333 6.66699 -81 20c-18.667 8.66699 -43.667 23 -75 43l-9 6l-27 17c-13.333 8 -25 14.667 -35 20c-25.333 12.667 -47.333 19 -66 19c-36 0 -81.333 -38.667 -136 -116z" />
    <glyph glyph-name="dieresis" unicode="&#xa8;" horiz-adv-x="1024" 
 />
    <glyph glyph-name="copyright" unicode="&#xa9;" horiz-adv-x="1507" 
d="M976 631v-115c0 -166.667 -77 -250 -231 -250c-154.667 0 -232 83.333 -232 250v397c0 169.333 77.333 254 232 254c154 0 231 -84.667 231 -254v-73h-148v86c0 65.333 -26.333 98 -79 98c-53.333 0 -80 -32.667 -80 -98v-418c0 -64 26.667 -96 80 -96
c52.667 0 79 32 79 96v123h148zM244 1243c135.333 138 305 207 509 207c203.333 0 372.666 -69 507.999 -207c136 -138.667 204 -314 204 -526s-68 -387.667 -204 -527c-135.333 -137.333 -304.666 -206 -507.999 -206c-204 0 -373.667 68.667 -509 206
c-136 139.333 -204 315 -204 527s68 387.333 204 526zM349 294c106.667 -111.333 241.334 -167 404.001 -167c162 0 296.667 55.667 404 167s161 252.333 161 423s-53.667 311.667 -161 423s-242 167 -404 167c-162.667 0 -297.334 -55.667 -404.001 -167
c-108 -111.333 -162 -252.333 -162 -423s54 -311.667 162 -423z" />
    <glyph glyph-name="registered" unicode="&#xae;" horiz-adv-x="1507" 
d="M244 1243c135.333 138 305 207 509 207c203.333 0 372.666 -69 507.999 -207c136 -138.667 204 -314 204 -526s-68 -387.667 -204 -527c-135.333 -137.333 -304.666 -206 -507.999 -206c-204 0 -373.667 68.667 -509 206c-136 139.333 -204 315 -204 527
s68 387.333 204 526zM349 294c106.667 -111.333 241.334 -167 404.001 -167c162 0 296.667 55.667 404 167s161 252.333 161 423s-53.667 311.667 -161 423s-242 167 -404 167c-162.667 0 -297.334 -55.667 -404.001 -167c-108 -111.333 -162 -252.333 -162 -423
s54 -311.667 162 -423zM855 279c-2.66699 7.33301 -4.66699 13.3311 -6 17.998c-2 6.66699 -3.66699 14 -5 22c-2 16.667 -3 44 -3 82v95c0 84.667 -35 127 -105 127h-53v-344h-156v876h238c154 0 231 -76.333 231 -229v-19c0 -103.333 -35.333 -170.666 -106 -201.999
c70.667 -29.333 106 -99.666 106 -210.999v-95c0 -52.667 6.33301 -92.667 19 -120h-160zM683 1012v-246h64c62.667 0 94 34.667 94 104v37c0 70 -28 105 -84 105h-74z" />
    <glyph glyph-name="acute" unicode="&#xb4;" horiz-adv-x="512" 
d="M446 1743l-221 -240h-160l147 240h234z" />
    <glyph glyph-name="paragraph" unicode="&#xb6;" 
d="M728 -133h-163v1403h-111v-1403h-164l4 676c-84 0 -149.667 32.667 -197 98c-46 62.667 -69 146.667 -69 252v186c0 236.667 112 355 336 355h364v-1567z" />
    <glyph glyph-name="ch270" unicode="&#xb7;" horiz-adv-x="380" 
d="M298 825v-217h-217v217h217z" />
    <glyph glyph-name="ch270" unicode="&#x2219;" horiz-adv-x="380" 
d="M298 825v-217h-217v217h217z" />
    <glyph glyph-name="onequarter" unicode="&#xbc;" horiz-adv-x="1284" 
d="M133 1319c49.333 0 86.668 11.334 112.001 34.001c10.667 9.33301 20 21.666 28 36.999c3.33301 6 6.66602 13 9.99902 21l10 23h94v-910h-143v695h-111v100zM893.002 1434h133l-565 -1434h-133zM760.002 289.001l260 614h155v-614h68v-131h-68v-164h-141v164h-274v131z
M1034 289.001v336l-145 -336h145z" />
    <glyph glyph-name="onehalf" unicode="&#xbd;" horiz-adv-x="1284" 
d="M133 1319c49.333 0 86.668 11.334 112.001 34.001c10.667 9.33301 20 21.666 28 36.999c3.33301 6 6.66602 13 9.99902 21l10 23h94v-910h-143v695h-111v100zM831.002 1434h133l-565 -1434h-133zM1005 786.001c-48.667 0 -73 -29.999 -73 -89.999v-96h-135v88
c0 151.333 71 227 213 227s213 -75.667 213 -227c0 -66.667 -16.333 -130.334 -49 -191.001c-12.667 -24.667 -28.667 -50 -48 -76c-14.667 -19.333 -33.334 -41.333 -56.001 -66l-20 -23c-0.666992 -0.666992 -2 -1.66699 -4 -3l-16 -19
c-5.33301 -5.33301 -9.66602 -10 -12.999 -14c-19.333 -22 -34.333 -40.667 -45 -56c-28 -40.667 -38.667 -78.334 -32 -113.001h270v-129h-413v111c0 58.667 14.667 113.667 44 165c11.333 20 26.333 41.333 45 64c7.33301 9.33301 16 19.333 26 30l52 58l26 30
c18 22.667 33 44 45 64c29.333 50.667 44 105.334 44 164.001c0 68 -24.667 102 -74 102z" />
    <glyph glyph-name="threequarters" unicode="&#xbe;" horiz-adv-x="1284" 
d="M356 817c0 76.667 -31 115.001 -93 115.001h-49v129h56c57.333 0 86 32.667 86 98v51c0 70 -24.667 105 -74 105s-74 -30 -74 -90v-58h-135v47c0 153.333 71 230 213 230s213 -76.667 213 -230v-22c0 -96.667 -33.333 -158.667 -100 -186
c66.667 -28.667 100 -92.334 100 -191.001v-72c0 -152.667 -71 -229 -213 -229s-213 76.333 -213 229v74h135v-84c0 -60 24.667 -90 74 -90s74 35 74 105v69zM913 1434h133l-565 -1434h-134zM759 289.001l260 614h156v-614h67v-131h-67v-164h-141v164h-275v131z
M1034 289.001v336l-146 -336h146z" />
    <glyph glyph-name="Agrave" unicode="&#xc0;" horiz-adv-x="833" 
d="M810 0h-227l-39 260h-276l-39 -260h-207l229 1434h330zM296 455h218l-109 725zM382 1743l148 -240h-170l-221 240h243z" />
    <glyph glyph-name="Aacute" unicode="&#xc1;" horiz-adv-x="833" 
d="M810 0h-227l-39 260h-276l-39 -260h-207l229 1434h330zM296 455h218l-109 725zM688 1743l-222 -240h-159l147 240h234z" />
    <glyph glyph-name="Acircumflex" unicode="&#xc2;" horiz-adv-x="833" 
d="M810 0h-227l-39 260h-276l-39 -260h-207l229 1434h330zM296 455h218l-109 725zM118 1503l191 240h215l190 -240h-203l-96 119l-94 -119h-203z" />
    <glyph glyph-name="Atilde" unicode="&#xc3;" horiz-adv-x="833" 
d="M810 0h-227l-39 260h-276l-39 -260h-207l229 1434h330zM296 455h218l-109 725zM720 1649c-32 -57.333 -63.668 -96.666 -95.001 -117.999c-26.667 -18.667 -59.667 -28 -99 -28c-33.333 0 -72 9.33301 -116 28l-48 19c-17.333 6 -33 9 -47 9
c-37.333 0 -67.333 -22.667 -90 -68l-115 86c32 57.333 63.667 96.666 95 117.999c26.667 18 60 27 100 27c32.667 0 71.334 -9 116.001 -27l48 -19c17.333 -6 33 -9 47 -9c37.333 0 67.333 22.667 90 68z" />
    <glyph glyph-name="Egrave" unicode="&#xc8;" horiz-adv-x="753" 
d="M306 829h310v-204h-310v-420h389v-205h-614v1434h614v-205h-389v-400zM351 1743l148 -240h-170l-221 240h243z" />
    <glyph glyph-name="Eacute" unicode="&#xc9;" horiz-adv-x="753" 
d="M306 829h310v-204h-310v-420h389v-205h-614v1434h614v-205h-389v-400zM659 1743l-222 -240h-159l147 240h234z" />
    <glyph glyph-name="Ecircumflex" unicode="&#xca;" horiz-adv-x="753" 
d="M306 829h310v-204h-310v-420h389v-205h-614v1434h614v-205h-389v-400zM87 1503l191 240h215l190 -240h-203l-96 119l-94 -119h-203z" />
    <glyph glyph-name="Igrave" unicode="&#xcc;" horiz-adv-x="389" 
d="M83 1434h225v-1434h-225v1434zM163 1743l147 -240h-170l-221 240h244z" />
    <glyph glyph-name="Iacute" unicode="&#xcd;" horiz-adv-x="389" 
d="M81 1434h225v-1434h-225v1434zM466 1743l-221 -240h-160l148 240h233z" />
    <glyph glyph-name="Dslash" unicode="&#xd0;" horiz-adv-x="835" 
d="M82 625h-74v184h74v625h356c224 0 336 -118.333 336 -355v-725c0 -236 -112 -354 -336 -354h-356v625zM307 1229v-420h139v-184h-139v-420h127c76.667 0 115 46.333 115 139v746c0 92.667 -38.333 139 -115 139h-127z" />
    <glyph glyph-name="Dslash" unicode="&#x110;" horiz-adv-x="835" 
d="M82 625h-74v184h74v625h356c224 0 336 -118.333 336 -355v-725c0 -236 -112 -354 -336 -354h-356v625zM307 1229v-420h139v-184h-139v-420h127c76.667 0 115 46.333 115 139v746c0 92.667 -38.333 139 -115 139h-127z" />
    <glyph glyph-name="Ograve" unicode="&#xd2;" 
d="M288 330c0 -94.667 39 -142 117 -142s117 47.333 117 142v774c0 94 -39 141 -117 141s-117 -47 -117 -141v-774zM63 1090c0 240 114 360 342 360s342 -120 342 -360v-746c0 -240 -114 -360 -342 -360s-342 120 -342 360v746zM370 1743l148 -240h-170l-222 240h244z" />
    <glyph glyph-name="Oacute" unicode="&#xd3;" 
d="M288 330c0 -94.667 39 -142 117 -142s117 47.333 117 142v774c0 94 -39 141 -117 141s-117 -47 -117 -141v-774zM63 1090c0 240 114 360 342 360s342 -120 342 -360v-746c0 -240 -114 -360 -342 -360s-342 120 -342 360v746zM677 1743l-221 -240h-160l148 240h233z" />
    <glyph glyph-name="Ocircumflex" unicode="&#xd4;" 
d="M288 330c0 -94.667 39 -142 117 -142s117 47.333 117 142v774c0 94 -39 141 -117 141s-117 -47 -117 -141v-774zM63 1090c0 240 114 360 342 360s342 -120 342 -360v-746c0 -240 -114 -360 -342 -360s-342 120 -342 360v746zM106 1503l190 240h216l190 -240h-203l-96 119
l-94 -119h-203z" />
    <glyph glyph-name="Otilde" unicode="&#xd5;" 
d="M288 330c0 -94.667 39 -142 117 -142s117 47.333 117 142v774c0 94 -39 141 -117 141s-117 -47 -117 -141v-774zM63 1090c0 240 114 360 342 360s342 -120 342 -360v-746c0 -240 -114 -360 -342 -360s-342 120 -342 360v746zM710 1649
c-32 -57.333 -63.666 -96.666 -94.999 -117.999c-26.667 -18.667 -59.667 -28 -99 -28c-33.333 0 -72.333 9.33301 -117 28l-48 19c-16.667 6 -32 9 -46 9c-38 0 -68 -22.667 -90 -68l-115 86c32 57.333 63.667 96.666 95 117.999c26.667 18 59.667 27 99 27
c33.333 0 72.333 -9 117 -27l48 -19c17.333 -6 32.666 -9 45.999 -9c38 0 68 22.667 90 68z" />
    <glyph glyph-name="Ugrave" unicode="&#xd9;" horiz-adv-x="815" 
d="M296 1434v-1106c0 -93.333 39 -140 117 -140s117 46.667 117 140v1106h213v-1092c0 -240 -112 -360 -336 -360s-336 120 -336 360v1092h225zM374 1743l148 -240h-170l-222 240h244z" />
    <glyph glyph-name="Uacute" unicode="&#xda;" horiz-adv-x="815" 
d="M296 1434v-1106c0 -93.333 39 -140 117 -140s117 46.667 117 140v1106h213v-1092c0 -240 -112 -360 -336 -360s-336 120 -336 360v1092h225zM681 1743l-221 -240h-160l148 240h233z" />
    <glyph glyph-name="Yacute" unicode="&#xdd;" 
d="M293 475l-285 959h236l172 -654l172 654h215l-285 -959v-475h-225v475zM682 1743l-221 -240h-160l147 240h234z" />
    <glyph glyph-name="agrave" unicode="&#xe0;" horiz-adv-x="833" 
d="M810 0h-227l-39 260h-276l-39 -260h-207l229 1434h330zM296 455h218l-109 725zM382 1743l148 -240h-170l-221 240h243z" />
    <glyph glyph-name="aacute" unicode="&#xe1;" horiz-adv-x="833" 
d="M810 0h-227l-39 260h-276l-39 -260h-207l229 1434h330zM296 455h218l-109 725zM688 1743l-222 -240h-159l147 240h234z" />
    <glyph glyph-name="acircumflex" unicode="&#xe2;" horiz-adv-x="833" 
d="M810 0h-227l-39 260h-276l-39 -260h-207l229 1434h330zM296 455h218l-109 725zM118 1503l191 240h215l190 -240h-203l-96 119l-94 -119h-203z" />
    <glyph glyph-name="atilde" unicode="&#xe3;" horiz-adv-x="833" 
d="M810 0h-227l-39 260h-276l-39 -260h-207l229 1434h330zM296 455h218l-109 725zM720 1649c-32 -57.333 -63.668 -96.666 -95.001 -117.999c-26.667 -18.667 -59.667 -28 -99 -28c-33.333 0 -72 9.33301 -116 28l-48 19c-17.333 6 -33 9 -47 9
c-37.333 0 -67.333 -22.667 -90 -68l-115 86c32 57.333 63.667 96.666 95 117.999c26.667 18 60 27 100 27c32.667 0 71.334 -9 116.001 -27l48 -19c17.333 -6 33 -9 47 -9c37.333 0 67.333 22.667 90 68z" />
    <glyph glyph-name="egrave" unicode="&#xe8;" horiz-adv-x="753" 
d="M306 829h310v-204h-310v-420h389v-205h-614v1434h614v-205h-389v-400zM351 1743l148 -240h-170l-221 240h243z" />
    <glyph glyph-name="eacute" unicode="&#xe9;" horiz-adv-x="753" 
d="M306 829h310v-204h-310v-420h389v-205h-614v1434h614v-205h-389v-400zM659 1743l-222 -240h-159l147 240h234z" />
    <glyph glyph-name="ecircumflex" unicode="&#xea;" horiz-adv-x="753" 
d="M306 829h310v-204h-310v-420h389v-205h-614v1434h614v-205h-389v-400zM87 1503l191 240h215l190 -240h-203l-96 119l-94 -119h-203z" />
    <glyph glyph-name="igrave" unicode="&#xec;" horiz-adv-x="389" 
d="M83 1434h225v-1434h-225v1434zM163 1743l147 -240h-170l-221 240h244z" />
    <glyph glyph-name="iacute" unicode="&#xed;" horiz-adv-x="389" 
d="M81 1434h225v-1434h-225v1434zM466 1743l-221 -240h-160l148 240h233z" />
    <glyph glyph-name="ograve" unicode="&#xf2;" 
d="M288 330c0 -94.667 39 -142 117 -142s117 47.333 117 142v774c0 94 -39 141 -117 141s-117 -47 -117 -141v-774zM63 1090c0 240 114 360 342 360s342 -120 342 -360v-746c0 -240 -114 -360 -342 -360s-342 120 -342 360v746zM370 1743l148 -240h-170l-222 240h244z" />
    <glyph glyph-name="oacute" unicode="&#xf3;" 
d="M288 330c0 -94.667 39 -142 117 -142s117 47.333 117 142v774c0 94 -39 141 -117 141s-117 -47 -117 -141v-774zM63 1090c0 240 114 360 342 360s342 -120 342 -360v-746c0 -240 -114 -360 -342 -360s-342 120 -342 360v746zM677 1743l-221 -240h-160l148 240h233z" />
    <glyph glyph-name="ocircumflex" unicode="&#xf4;" 
d="M288 330c0 -94.667 39 -142 117 -142s117 47.333 117 142v774c0 94 -39 141 -117 141s-117 -47 -117 -141v-774zM63 1090c0 240 114 360 342 360s342 -120 342 -360v-746c0 -240 -114 -360 -342 -360s-342 120 -342 360v746zM106 1503l190 240h216l190 -240h-203l-96 119
l-94 -119h-203z" />
    <glyph glyph-name="otilde" unicode="&#xf5;" 
d="M288 330c0 -94.667 39 -142 117 -142s117 47.333 117 142v774c0 94 -39 141 -117 141s-117 -47 -117 -141v-774zM63 1090c0 240 114 360 342 360s342 -120 342 -360v-746c0 -240 -114 -360 -342 -360s-342 120 -342 360v746zM710 1649
c-32 -57.333 -63.666 -96.666 -94.999 -117.999c-26.667 -18.667 -59.667 -28 -99 -28c-33.333 0 -72.333 9.33301 -117 28l-48 19c-16.667 6 -32 9 -46 9c-38 0 -68 -22.667 -90 -68l-115 86c32 57.333 63.667 96.666 95 117.999c26.667 18 59.667 27 99 27
c33.333 0 72.333 -9 117 -27l48 -19c17.333 -6 32.666 -9 45.999 -9c38 0 68 22.667 90 68z" />
    <glyph glyph-name="divide" unicode="&#xf7;" horiz-adv-x="1110" 
d="M655 1004c0 -28.667 -9.5 -53 -28.5 -73s-42.167 -30 -69.5 -30s-50.666 10 -69.999 30s-29 44.333 -29 73s9.66699 52.834 29 72.501s42.666 29.5 69.999 29.5s50.5 -9.83301 69.5 -29.5s28.5 -43.834 28.5 -72.501zM139 602v127h831v-127h-831zM655 328
c0 -28.667 -9.5 -53 -28.5 -73s-42.167 -30 -69.5 -30s-50.666 10 -69.999 30s-29 44.333 -29 73s9.66699 52.834 29 72.501s42.666 29.5 69.999 29.5s50.5 -9.83301 69.5 -29.5s28.5 -43.834 28.5 -72.501z" />
    <glyph glyph-name="glyph217" unicode="&#xf9;" horiz-adv-x="815" 
d="M296 1434v-1106c0 -93.333 39 -140 117 -140s117 46.667 117 140v1106h213v-1092c0 -240 -112 -360 -336 -360s-336 120 -336 360v1092h225zM374 1743l148 -240h-170l-222 240h244z" />
    <glyph glyph-name="glyph218" unicode="&#xfa;" horiz-adv-x="815" 
d="M296 1434v-1106c0 -93.333 39 -140 117 -140s117 46.667 117 140v1106h213v-1092c0 -240 -112 -360 -336 -360s-336 120 -336 360v1092h225zM681 1743l-221 -240h-160l148 240h233z" />
    <glyph glyph-name="glyph235" unicode="&#xfd;" 
d="M293 475l-285 959h236l172 -654l172 654h215l-285 -959v-475h-225v475zM682 1743l-221 -240h-160l147 240h234z" />
    <glyph glyph-name="Abreve" unicode="&#x102;" horiz-adv-x="833" 
d="M810 0h-227l-39 260h-276l-39 -260h-207l229 1434h330zM296 455h218l-109 725zM658 1743c0 -165.333 -81.333 -248 -244 -248c-157.333 0 -237 82.667 -239 248h141c4.66699 -67.333 37.334 -101 98.001 -101c63.333 0 97.666 33.667 102.999 101h141z" />
    <glyph glyph-name="abreve" unicode="&#x103;" horiz-adv-x="833" 
d="M810 0h-227l-39 260h-276l-39 -260h-207l229 1434h330zM296 455h218l-109 725zM658 1743c0 -165.333 -81.333 -248 -244 -248c-157.333 0 -237 82.667 -239 248h141c4.66699 -67.333 37.334 -101 98.001 -101c63.333 0 97.666 33.667 102.999 101h141z" />
    <glyph glyph-name="Ccaron" unicode="&#x10c;" horiz-adv-x="1274" 
 />
    <glyph glyph-name="ccaron" unicode="&#x10d;" horiz-adv-x="922" 
 />
    <glyph glyph-name="dcroat" unicode="&#x111;" horiz-adv-x="835" 
d="M82 625h-74v184h74v625h356c224 0 336 -118.333 336 -355v-725c0 -236 -112 -354 -336 -354h-356v625zM307 1229v-420h139v-184h-139v-420h127c76.667 0 115 46.333 115 139v746c0 92.667 -38.333 139 -115 139h-127z" />
    <glyph glyph-name="Itilde" unicode="&#x128;" horiz-adv-x="389" 
d="M81 1434h226v-1434h-226v1434zM504 1649c-32 -57.333 -63.668 -96.666 -95.001 -117.999c-26.667 -18.667 -59.667 -28 -99 -28c-33.333 0 -72 9.33301 -116 28l-48 19c-17.333 6 -33 9 -47 9c-38 0 -68 -22.667 -90 -68l-115 86c32 57.333 63.667 96.666 95 117.999
c26.667 18 60 27 100 27c32.667 0 71.334 -9 116.001 -27l48 -19c17.333 -6 33 -9 47 -9c37.333 0 67.333 22.667 90 68z" />
    <glyph glyph-name="itilde" unicode="&#x129;" horiz-adv-x="389" 
d="M81 1434h226v-1434h-226v1434zM504 1649c-32 -57.333 -63.668 -96.666 -95.001 -117.999c-26.667 -18.667 -59.667 -28 -99 -28c-33.333 0 -72 9.33301 -116 28l-48 19c-17.333 6 -33 9 -47 9c-38 0 -68 -22.667 -90 -68l-115 86c32 57.333 63.667 96.666 95 117.999
c26.667 18 60 27 100 27c32.667 0 71.334 -9 116.001 -27l48 -19c17.333 -6 33 -9 47 -9c37.333 0 67.333 22.667 90 68z" />
    <glyph glyph-name="Utilde" unicode="&#x168;" horiz-adv-x="815" 
d="M296 1434v-1106c0 -93.333 39 -140 117 -140s117 46.667 117 140v1106h213v-1092c0 -240 -112 -360 -336 -360s-336 120 -336 360v1092h225zM710 1649c-32 -57.333 -63.666 -96.666 -94.999 -117.999c-26.667 -18.667 -60 -28 -100 -28
c-32.667 0 -71.334 9.33301 -116.001 28l-48 19c-17.333 6 -33 9 -47 9c-37.333 0 -67.333 -22.667 -90 -68l-114 86c32 57.333 63.667 96.666 95 117.999c26.667 18 59.667 27 99 27c33.333 0 72 -9 116 -27l48 -19c17.333 -6 33 -9 47 -9c37.333 0 67.333 22.667 90 68z
" />
    <glyph glyph-name="utilde" unicode="&#x169;" horiz-adv-x="815" 
d="M296 1434v-1106c0 -93.333 39 -140 117 -140s117 46.667 117 140v1106h213v-1092c0 -240 -112 -360 -336 -360s-336 120 -336 360v1092h225zM710 1649c-32 -57.333 -63.666 -96.666 -94.999 -117.999c-26.667 -18.667 -60 -28 -100 -28
c-32.667 0 -71.334 9.33301 -116.001 28l-48 19c-17.333 6 -33 9 -47 9c-37.333 0 -67.333 -22.667 -90 -68l-114 86c32 57.333 63.667 96.666 95 117.999c26.667 18 59.667 27 99 27c33.333 0 72 -9 116 -27l48 -19c17.333 -6 33 -9 47 -9c37.333 0 67.333 22.667 90 68z
" />
    <glyph glyph-name="Ohorn" unicode="&#x1a0;" 
d="M289 330c0 -94.667 39 -142 117 -142c77.333 0 116 47.333 116 142v774c0 94 -38.667 141 -116 141c-78 0 -117 -47 -117 -141v-774zM746 1148c1.33301 -18.667 2.00098 -38 2.00098 -58v-746c0 -240 -114 -360 -342 -360c-228.667 0 -343 120 -343 360v746
c0 240 114.333 360 343 360c93.333 0 167.666 -20.333 222.999 -61v137h194v-186z" />
    <glyph glyph-name="ohorn" unicode="&#x1a1;" 
d="M289 330c0 -94.667 39 -142 117 -142c77.333 0 116 47.333 116 142v774c0 94 -38.667 141 -116 141c-78 0 -117 -47 -117 -141v-774zM746 1148c1.33301 -18.667 2.00098 -38 2.00098 -58v-746c0 -240 -114 -360 -342 -360c-228.667 0 -343 120 -343 360v746
c0 240 114.333 360 343 360c93.333 0 167.666 -20.333 222.999 -61v137h194v-186z" />
    <glyph glyph-name="Uhorn" unicode="&#x1af;" horiz-adv-x="815" 
d="M742 1142v-800c0 -240 -111.667 -360 -335 -360c-224 0 -336 120 -336 360v1092h225v-1106c0 -93.333 39 -140 117 -140c77.333 0 116 46.667 116 140v1106h99v92h194v-186z" />
    <glyph glyph-name="uhorn" unicode="&#x1b0;" horiz-adv-x="815" 
d="M742 1142v-800c0 -240 -111.667 -360 -335 -360c-224 0 -336 120 -336 360v1092h225v-1106c0 -93.333 39 -140 117 -140c77.333 0 116 46.667 116 140v1106h99v92h194v-186z" />
    <glyph glyph-name="uni1EA0" unicode="&#x1ea0;" horiz-adv-x="833" 
d="M810 0h-227l-39 260h-276l-39 -260h-207l229 1434h330zM296 455h218l-109 725zM521 -107v-209h-209v209h209z" />
    <glyph glyph-name="uni1EA1" unicode="&#x1ea1;" horiz-adv-x="833" 
d="M810 0h-227l-39 260h-276l-39 -260h-207l229 1434h330zM296 455h218l-109 725zM521 -107v-209h-209v209h209z" />
    <glyph glyph-name="uni1EA2" unicode="&#x1ea2;" horiz-adv-x="833" 
d="M810 0h-227l-39 260h-276l-39 -260h-207l229 1434h330zM296 455h218l-109 725zM338 1491c-2 8.66699 -3.00098 17 -3.00098 25c0 30 5.66699 56.333 17 79c4 10 8.66699 20.333 14 31l35 51l12 27c8 20.667 12 44 12 70c0 20 -6 30 -18 30s-18 -10 -18 -30v-80h-125v75
c0 104 48.333 156 145 156s145 -52 145 -156c0 -34 -5.33301 -65.333 -16 -94l-18 -35c-4 -8 -10.333 -17.333 -19 -28c-1.33301 -1.33301 -2.66602 -3.33301 -3.99902 -6l-14 -19l-15 -22c-8 -16.667 -12 -34 -12 -52c0 -4.66699 1 -12 3 -22h-121z" />
    <glyph glyph-name="uni1EA3" unicode="&#x1ea3;" horiz-adv-x="833" 
d="M810 0h-227l-39 260h-276l-39 -260h-207l229 1434h330zM296 455h218l-109 725zM338 1491c-2 8.66699 -3.00098 17 -3.00098 25c0 30 5.66699 56.333 17 79c4 10 8.66699 20.333 14 31l35 51l12 27c8 20.667 12 44 12 70c0 20 -6 30 -18 30s-18 -10 -18 -30v-80h-125v75
c0 104 48.333 156 145 156s145 -52 145 -156c0 -34 -5.33301 -65.333 -16 -94l-18 -35c-4 -8 -10.333 -17.333 -19 -28c-1.33301 -1.33301 -2.66602 -3.33301 -3.99902 -6l-14 -19l-15 -22c-8 -16.667 -12 -34 -12 -52c0 -4.66699 1 -12 3 -22h-121z" />
    <glyph glyph-name="uni1EA4" unicode="&#x1ea4;" horiz-adv-x="833" 
d="M810 0h-227l-39 260h-276l-39 -260h-207l229 1434h330zM296 455h218l-109 725zM1024 1907l-222 -240h-159l147 240h234zM118 1503l191 240h215l190 -240h-203l-96 119l-94 -119h-203z" />
    <glyph glyph-name="uni1EA5" unicode="&#x1ea5;" horiz-adv-x="833" 
d="M810 0h-227l-39 260h-276l-39 -260h-207l229 1434h330zM296 455h218l-109 725zM1024 1907l-222 -240h-159l147 240h234zM118 1503l191 240h215l190 -240h-203l-96 119l-94 -119h-203z" />
    <glyph glyph-name="uni1EA6" unicode="&#x1ea6;" horiz-adv-x="833" 
d="M810 0h-227l-39 260h-276l-39 -260h-207l229 1434h330zM296 455h218l-109 725zM728 1908l148 -240h-170l-221 240h243zM118 1503l191 240h215l190 -240h-203l-96 119l-94 -119h-203z" />
    <glyph glyph-name="uni1EA7" unicode="&#x1ea7;" horiz-adv-x="833" 
d="M810 0h-227l-39 260h-276l-39 -260h-207l229 1434h330zM296 455h218l-109 725zM728 1908l148 -240h-170l-221 240h243zM118 1503l191 240h215l190 -240h-203l-96 119l-94 -119h-203z" />
    <glyph glyph-name="uni1EA8" unicode="&#x1ea8;" horiz-adv-x="833" 
d="M810 0h-227l-39 260h-276l-39 -260h-207l229 1434h330zM296 455h218l-109 725zM655 1672c-2 8.66699 -3.00098 17 -3.00098 25c0 30 5.66699 56.333 17 79c4 10 8.66699 20.333 14 31l35 51l12 27c8 20.667 12 44 12 70c0 20 -6 30 -18 30s-18 -10 -18 -30v-80h-125v75
c0 104 48.333 156 145 156s145 -52 145 -156c0 -34 -5.33301 -65.333 -16 -94l-18 -35c-4 -8 -10.333 -17.333 -19 -28c-1.33301 -1.33301 -2.66602 -3.33301 -3.99902 -6l-14 -19l-15 -22c-8 -16.667 -12 -34 -12 -52c0 -4.66699 1 -12 3 -22h-121zM117.999 1503l191 240
h215l190 -240h-203l-96 119l-94 -119h-203z" />
    <glyph glyph-name="uni1EA9" unicode="&#x1ea9;" horiz-adv-x="833" 
d="M810 0h-227l-39 260h-276l-39 -260h-207l229 1434h330zM296 455h218l-109 725zM655 1672c-2 8.66699 -3.00098 17 -3.00098 25c0 30 5.66699 56.333 17 79c4 10 8.66699 20.333 14 31l35 51l12 27c8 20.667 12 44 12 70c0 20 -6 30 -18 30s-18 -10 -18 -30v-80h-125v75
c0 104 48.333 156 145 156s145 -52 145 -156c0 -34 -5.33301 -65.333 -16 -94l-18 -35c-4 -8 -10.333 -17.333 -19 -28c-1.33301 -1.33301 -2.66602 -3.33301 -3.99902 -6l-14 -19l-15 -22c-8 -16.667 -12 -34 -12 -52c0 -4.66699 1 -12 3 -22h-121zM117.999 1503l191 240
h215l190 -240h-203l-96 119l-94 -119h-203z" />
    <glyph glyph-name="uni1EAA" unicode="&#x1eaa;" horiz-adv-x="833" 
d="M810 0h-227l-39 260h-276l-39 -260h-207l229 1434h330zM296 455h218l-109 725zM764 1934c-32 -57.333 -63.668 -96.666 -95.001 -117.999c-26.667 -18.667 -59.667 -28 -99 -28c-33.333 0 -72 9.33301 -116 28l-48 19c-17.333 6 -33 9 -47 9
c-37.333 0 -67.333 -22.667 -90 -68l-115 86c32 57.333 63.667 96.666 95 117.999c26.667 18 60 27 100 27c32.667 0 71.334 -9 116.001 -27l48 -19c17.333 -6 33 -9 47 -9c37.333 0 67.333 22.667 90 68zM117.999 1503l191 240h215l190 -240h-203l-96 119l-94 -119h-203z
" />
    <glyph glyph-name="uni1EAB" unicode="&#x1eab;" horiz-adv-x="833" 
d="M810 0h-227l-39 260h-276l-39 -260h-207l229 1434h330zM296 455h218l-109 725zM764 1934c-32 -57.333 -63.668 -96.666 -95.001 -117.999c-26.667 -18.667 -59.667 -28 -99 -28c-33.333 0 -72 9.33301 -116 28l-48 19c-17.333 6 -33 9 -47 9
c-37.333 0 -67.333 -22.667 -90 -68l-115 86c32 57.333 63.667 96.666 95 117.999c26.667 18 60 27 100 27c32.667 0 71.334 -9 116.001 -27l48 -19c17.333 -6 33 -9 47 -9c37.333 0 67.333 22.667 90 68zM117.999 1503l191 240h215l190 -240h-203l-96 119l-94 -119h-203z
" />
    <glyph glyph-name="uni1EAC" unicode="&#x1eac;" horiz-adv-x="833" 
d="M810 0h-227l-39 260h-276l-39 -260h-207l229 1434h330zM296 455h218l-109 725zM521 -107v-209h-209v209h209zM118 1503l191 240h215l190 -240h-203l-96 119l-94 -119h-203z" />
    <glyph glyph-name="uni1EAD" unicode="&#x1ead;" horiz-adv-x="833" 
d="M810 0h-227l-39 260h-276l-39 -260h-207l229 1434h330zM296 455h218l-109 725zM521 -107v-209h-209v209h209zM118 1503l191 240h215l190 -240h-203l-96 119l-94 -119h-203z" />
    <glyph glyph-name="uni1EAE" unicode="&#x1eae;" horiz-adv-x="833" 
d="M810 0h-227l-39 260h-276l-39 -260h-207l229 1434h330zM296 455h218l-109 725zM711 2021l-222 -240h-159l147 240h234zM658 1743c0 -165.333 -81.333 -248 -244 -248c-157.333 0 -237 82.667 -239 248h141c4.66699 -67.333 37.334 -101 98.001 -101
c63.333 0 97.666 33.667 102.999 101h141z" />
    <glyph glyph-name="uni1EAF" unicode="&#x1eaf;" horiz-adv-x="833" 
d="M810 0h-227l-39 260h-276l-39 -260h-207l229 1434h330zM296 455h218l-109 725zM711 2021l-222 -240h-159l147 240h234zM658 1743c0 -165.333 -81.333 -248 -244 -248c-157.333 0 -237 82.667 -239 248h141c4.66699 -67.333 37.334 -101 98.001 -101
c63.333 0 97.666 33.667 102.999 101h141z" />
    <glyph glyph-name="uni1EB0" unicode="&#x1eb0;" horiz-adv-x="833" 
d="M810 0h-227l-39 260h-276l-39 -260h-207l229 1434h330zM296 455h218l-109 725zM375 2038l148 -240h-170l-221 240h243zM658 1743c0 -165.333 -81.333 -248 -244 -248c-157.333 0 -237 82.667 -239 248h141c4.66699 -67.333 37.334 -101 98.001 -101
c63.333 0 97.666 33.667 102.999 101h141z" />
    <glyph glyph-name="uni1EB1" unicode="&#x1eb1;" horiz-adv-x="833" 
d="M810 0h-227l-39 260h-276l-39 -260h-207l229 1434h330zM296 455h218l-109 725zM375 2038l148 -240h-170l-221 240h243zM658 1743c0 -165.333 -81.333 -248 -244 -248c-157.333 0 -237 82.667 -239 248h141c4.66699 -67.333 37.334 -101 98.001 -101
c63.333 0 97.666 33.667 102.999 101h141z" />
    <glyph glyph-name="uni1EB2" unicode="&#x1eb2;" horiz-adv-x="833" 
d="M810 0h-227l-39 260h-276l-39 -260h-207l229 1434h330zM296 455h218l-109 725zM359 1761c-2 8.66699 -3.00098 17 -3.00098 25c0 30 5.66699 56.333 17 79c4 10 8.66699 20.333 14 31l35 51l12 27c8 20.667 12 44 12 70c0 20 -6 30 -18 30s-18 -10 -18 -30v-80h-125v75
c0 104 48.333 156 145 156s145 -52 145 -156c0 -34 -5.33301 -65.333 -16 -94l-18 -35c-4 -8 -10.333 -17.333 -19 -28c-1.33301 -1.33301 -2.66602 -3.33301 -3.99902 -6l-14 -19l-15 -22c-8 -16.667 -12 -34 -12 -52c0 -4.66699 1 -12 3 -22h-121zM657.999 1743
c0 -165.333 -81.333 -248 -244 -248c-157.333 0 -237 82.667 -239 248h141c4.66699 -67.333 37.334 -101 98.001 -101c63.333 0 97.666 33.667 102.999 101h141z" />
    <glyph glyph-name="uni1EB3" unicode="&#x1eb3;" horiz-adv-x="833" 
d="M810 0h-227l-39 260h-276l-39 -260h-207l229 1434h330zM296 455h218l-109 725zM359 1761c-2 8.66699 -3.00098 17 -3.00098 25c0 30 5.66699 56.333 17 79c4 10 8.66699 20.333 14 31l35 51l12 27c8 20.667 12 44 12 70c0 20 -6 30 -18 30s-18 -10 -18 -30v-80h-125v75
c0 104 48.333 156 145 156s145 -52 145 -156c0 -34 -5.33301 -65.333 -16 -94l-18 -35c-4 -8 -10.333 -17.333 -19 -28c-1.33301 -1.33301 -2.66602 -3.33301 -3.99902 -6l-14 -19l-15 -22c-8 -16.667 -12 -34 -12 -52c0 -4.66699 1 -12 3 -22h-121zM657.999 1743
c0 -165.333 -81.333 -248 -244 -248c-157.333 0 -237 82.667 -239 248h141c4.66699 -67.333 37.334 -101 98.001 -101c63.333 0 97.666 33.667 102.999 101h141z" />
    <glyph glyph-name="uni1EB4" unicode="&#x1eb4;" horiz-adv-x="833" 
d="M810 0h-227l-39 260h-276l-39 -260h-207l229 1434h330zM296 455h218l-109 725zM765 1955c-32 -57.333 -63.668 -96.666 -95.001 -117.999c-26.667 -18.667 -59.667 -28 -99 -28c-33.333 0 -72 9.33301 -116 28l-48 19c-17.333 6 -33 9 -47 9
c-37.333 0 -67.333 -22.667 -90 -68l-115 86c32 57.333 63.667 96.666 95 117.999c26.667 18 60 27 100 27c32.667 0 71.334 -9 116.001 -27l48 -19c17.333 -6 33 -9 47 -9c37.333 0 67.333 22.667 90 68zM657.999 1743c0 -165.333 -81.333 -248 -244 -248
c-157.333 0 -237 82.667 -239 248h141c4.66699 -67.333 37.334 -101 98.001 -101c63.333 0 97.666 33.667 102.999 101h141z" />
    <glyph glyph-name="uni1EB5" unicode="&#x1eb5;" horiz-adv-x="833" 
d="M810 0h-227l-39 260h-276l-39 -260h-207l229 1434h330zM296 455h218l-109 725zM765 1955c-32 -57.333 -63.668 -96.666 -95.001 -117.999c-26.667 -18.667 -59.667 -28 -99 -28c-33.333 0 -72 9.33301 -116 28l-48 19c-17.333 6 -33 9 -47 9
c-37.333 0 -67.333 -22.667 -90 -68l-115 86c32 57.333 63.667 96.666 95 117.999c26.667 18 60 27 100 27c32.667 0 71.334 -9 116.001 -27l48 -19c17.333 -6 33 -9 47 -9c37.333 0 67.333 22.667 90 68zM657.999 1743c0 -165.333 -81.333 -248 -244 -248
c-157.333 0 -237 82.667 -239 248h141c4.66699 -67.333 37.334 -101 98.001 -101c63.333 0 97.666 33.667 102.999 101h141z" />
    <glyph glyph-name="uni1EB6" unicode="&#x1eb6;" horiz-adv-x="833" 
d="M810 0h-227l-39 260h-276l-39 -260h-207l229 1434h330zM296 455h218l-109 725zM521 -107v-209h-209v209h209zM658 1743c0 -165.333 -81.333 -248 -244 -248c-157.333 0 -237 82.667 -239 248h141c4.66699 -67.333 37.334 -101 98.001 -101
c63.333 0 97.666 33.667 102.999 101h141z" />
    <glyph glyph-name="uni1EB7" unicode="&#x1eb7;" horiz-adv-x="833" 
d="M810 0h-227l-39 260h-276l-39 -260h-207l229 1434h330zM296 455h218l-109 725zM521 -107v-209h-209v209h209zM658 1743c0 -165.333 -81.333 -248 -244 -248c-157.333 0 -237 82.667 -239 248h141c4.66699 -67.333 37.334 -101 98.001 -101
c63.333 0 97.666 33.667 102.999 101h141z" />
    <glyph glyph-name="uni1EB8" unicode="&#x1eb8;" horiz-adv-x="753" 
d="M306 829h310v-204h-310v-420h389v-205h-614v1434h614v-205h-389v-400zM493 -107v-209h-209v209h209z" />
    <glyph glyph-name="uni1EB9" unicode="&#x1eb9;" horiz-adv-x="753" 
d="M306 829h310v-204h-310v-420h389v-205h-614v1434h614v-205h-389v-400zM493 -107v-209h-209v209h209z" />
    <glyph glyph-name="uni1EBA" unicode="&#x1eba;" horiz-adv-x="753" 
d="M306 829h310v-204h-310v-420h389v-205h-614v1434h614v-205h-389v-400zM319 1491c-1.33301 8.66699 -2.00195 17.001 -2.00195 25.001c0 30 5.33301 56.333 16 79c4 10 9 20.333 15 31l34 51c4.66699 8.66699 9 17.667 13 27c8 20.667 12 44 12 70c0 20 -6 30 -18 30
c-12.667 0 -19 -10 -19 -30v-80h-125v75c0 104 48.667 156 146 156c96.667 0 145 -52 145 -156c0 -34 -5.33301 -65.333 -16 -94c-5.33301 -10.667 -11.666 -22.334 -18.999 -35.001c-4 -8 -10 -17.333 -18 -28c-1.33301 -1.33301 -2.66602 -3.33301 -3.99902 -6l-15 -19
c-5.33301 -8 -10 -15.333 -14 -22c-8 -16.667 -12 -34 -12 -52c0 -4.66699 0.666992 -12 2 -22h-121z" />
    <glyph glyph-name="uni1EBB" unicode="&#x1ebb;" horiz-adv-x="753" 
d="M306 829h310v-204h-310v-420h389v-205h-614v1434h614v-205h-389v-400zM319 1491c-1.33301 8.66699 -2.00195 17.001 -2.00195 25.001c0 30 5.33301 56.333 16 79c4 10 9 20.333 15 31l34 51c4.66699 8.66699 9 17.667 13 27c8 20.667 12 44 12 70c0 20 -6 30 -18 30
c-12.667 0 -19 -10 -19 -30v-80h-125v75c0 104 48.667 156 146 156c96.667 0 145 -52 145 -156c0 -34 -5.33301 -65.333 -16 -94c-5.33301 -10.667 -11.666 -22.334 -18.999 -35.001c-4 -8 -10 -17.333 -18 -28c-1.33301 -1.33301 -2.66602 -3.33301 -3.99902 -6l-15 -19
c-5.33301 -8 -10 -15.333 -14 -22c-8 -16.667 -12 -34 -12 -52c0 -4.66699 0.666992 -12 2 -22h-121z" />
    <glyph glyph-name="uni1EBC" unicode="&#x1ebc;" horiz-adv-x="753" 
d="M306 829h310v-204h-310v-420h389v-205h-614v1434h614v-205h-389v-400zM711 1649c-32 -57.333 -63.666 -96.666 -94.999 -117.999c-26.667 -18.667 -60 -28 -100 -28c-32.667 0 -71.334 9.33301 -116.001 28l-48 19c-17.333 6 -33 9 -47 9
c-37.333 0 -67.333 -22.667 -90 -68l-114 86c32 57.333 63.667 96.666 95 117.999c26.667 18 59.667 27 99 27c33.333 0 72 -9 116 -27l48 -19c17.333 -6 33 -9 47 -9c37.333 0 67.333 22.667 90 68z" />
    <glyph glyph-name="uni1EBD" unicode="&#x1ebd;" horiz-adv-x="753" 
d="M306 829h310v-204h-310v-420h389v-205h-614v1434h614v-205h-389v-400zM711 1649c-32 -57.333 -63.666 -96.666 -94.999 -117.999c-26.667 -18.667 -60 -28 -100 -28c-32.667 0 -71.334 9.33301 -116.001 28l-48 19c-17.333 6 -33 9 -47 9
c-37.333 0 -67.333 -22.667 -90 -68l-114 86c32 57.333 63.667 96.666 95 117.999c26.667 18 59.667 27 99 27c33.333 0 72 -9 116 -27l48 -19c17.333 -6 33 -9 47 -9c37.333 0 67.333 22.667 90 68z" />
    <glyph glyph-name="uni1EBE" unicode="&#x1ebe;" horiz-adv-x="753" 
d="M306 829h310v-204h-310v-420h389v-205h-614v1434h614v-205h-389v-400zM1005 1894l-222 -240h-159l147 240h234zM87 1503l191 240h215l190 -240h-203l-96 119l-94 -119h-203z" />
    <glyph glyph-name="uni1EBF" unicode="&#x1ebf;" horiz-adv-x="753" 
d="M306 829h310v-204h-310v-420h389v-205h-614v1434h614v-205h-389v-400zM1005 1894l-222 -240h-159l147 240h234zM87 1503l191 240h215l190 -240h-203l-96 119l-94 -119h-203z" />
    <glyph glyph-name="uni1EC0" unicode="&#x1ec0;" horiz-adv-x="753" 
d="M306 829h310v-204h-310v-420h389v-205h-614v1434h614v-205h-389v-400zM675 1908l148 -240h-170l-221 240h243zM87 1503l191 240h215l190 -240h-203l-96 119l-94 -119h-203z" />
    <glyph glyph-name="uni1EC1" unicode="&#x1ec1;" horiz-adv-x="753" 
d="M306 829h310v-204h-310v-420h389v-205h-614v1434h614v-205h-389v-400zM675 1908l148 -240h-170l-221 240h243zM87 1503l191 240h215l190 -240h-203l-96 119l-94 -119h-203z" />
    <glyph glyph-name="uni1EC2" unicode="&#x1ec2;" horiz-adv-x="753" 
d="M306 829h310v-204h-310v-420h389v-205h-614v1434h614v-205h-389v-400zM620 1646c-1.33301 8.66699 -2.00195 17.001 -2.00195 25.001c0 30 5.33301 56.333 16 79c4 10 9 20.333 15 31l34 51c4.66699 8.66699 9 17.667 13 27c8 20.667 12 44 12 70c0 20 -6 30 -18 30
c-12.667 0 -19 -10 -19 -30v-80h-125v75c0 104 48.667 156 146 156c96.667 0 145 -52 145 -156c0 -34 -5.33301 -65.333 -16 -94c-5.33301 -10.667 -11.666 -22.334 -18.999 -35.001c-4 -8 -10 -17.333 -18 -28c-1.33301 -1.33301 -2.66602 -3.33301 -3.99902 -6l-15 -19
c-5.33301 -8 -10 -15.333 -14 -22c-8 -16.667 -12 -34 -12 -52c0 -4.66699 0.666992 -12 2 -22h-121zM86.998 1503l191 240h215l190 -240h-203l-96 119l-94 -119h-203z" />
    <glyph glyph-name="uni1EC3" unicode="&#x1ec3;" horiz-adv-x="753" 
d="M306 829h310v-204h-310v-420h389v-205h-614v1434h614v-205h-389v-400zM620 1646c-1.33301 8.66699 -2.00195 17.001 -2.00195 25.001c0 30 5.33301 56.333 16 79c4 10 9 20.333 15 31l34 51c4.66699 8.66699 9 17.667 13 27c8 20.667 12 44 12 70c0 20 -6 30 -18 30
c-12.667 0 -19 -10 -19 -30v-80h-125v75c0 104 48.667 156 146 156c96.667 0 145 -52 145 -156c0 -34 -5.33301 -65.333 -16 -94c-5.33301 -10.667 -11.666 -22.334 -18.999 -35.001c-4 -8 -10 -17.333 -18 -28c-1.33301 -1.33301 -2.66602 -3.33301 -3.99902 -6l-15 -19
c-5.33301 -8 -10 -15.333 -14 -22c-8 -16.667 -12 -34 -12 -52c0 -4.66699 0.666992 -12 2 -22h-121zM86.998 1503l191 240h215l190 -240h-203l-96 119l-94 -119h-203z" />
    <glyph glyph-name="uni1EC4" unicode="&#x1ec4;" horiz-adv-x="753" 
d="M306 829h310v-204h-310v-420h389v-205h-614v1434h614v-205h-389v-400zM728 1933c-32 -57.333 -63.666 -96.666 -94.999 -117.999c-26.667 -18.667 -60 -28 -100 -28c-32.667 0 -71.334 9.33301 -116.001 28l-48 19c-17.333 6 -33 9 -47 9
c-37.333 0 -67.333 -22.667 -90 -68l-114 86c32 57.333 63.667 96.666 95 117.999c26.667 18 59.667 27 99 27c33.333 0 72 -9 116 -27l48 -19c17.333 -6 33 -9 47 -9c37.333 0 67.333 22.667 90 68zM87.001 1503l191 240h215l190 -240h-203l-96 119l-94 -119h-203z" />
    <glyph glyph-name="uni1EC5" unicode="&#x1ec5;" horiz-adv-x="753" 
d="M306 829h310v-204h-310v-420h389v-205h-614v1434h614v-205h-389v-400zM728 1933c-32 -57.333 -63.666 -96.666 -94.999 -117.999c-26.667 -18.667 -60 -28 -100 -28c-32.667 0 -71.334 9.33301 -116.001 28l-48 19c-17.333 6 -33 9 -47 9
c-37.333 0 -67.333 -22.667 -90 -68l-114 86c32 57.333 63.667 96.666 95 117.999c26.667 18 59.667 27 99 27c33.333 0 72 -9 116 -27l48 -19c17.333 -6 33 -9 47 -9c37.333 0 67.333 22.667 90 68zM87.001 1503l191 240h215l190 -240h-203l-96 119l-94 -119h-203z" />
    <glyph glyph-name="uni1EC6" unicode="&#x1ec6;" horiz-adv-x="753" 
d="M306 829h310v-204h-310v-420h389v-205h-614v1434h614v-205h-389v-400zM493 -107v-209h-209v209h209zM87 1503l191 240h215l190 -240h-203l-96 119l-94 -119h-203z" />
    <glyph glyph-name="uni1EC7" unicode="&#x1ec7;" horiz-adv-x="753" 
d="M306 829h310v-204h-310v-420h389v-205h-614v1434h614v-205h-389v-400zM493 -107v-209h-209v209h209zM87 1503l191 240h215l190 -240h-203l-96 119l-94 -119h-203z" />
    <glyph glyph-name="uni1EC8" unicode="&#x1ec8;" horiz-adv-x="389" 
d="M81 1434h225v-1434h-225v1434zM129 1491c-1.33301 8.66699 -2 17 -2 25c0 30 5.33301 56.333 16 79c4 10 8.66699 20.333 14 31l35 51l13 27c8 20.667 12 44 12 70c0 20 -6.33301 30 -19 30c-12 0 -18 -10 -18 -30v-80h-125v75c0 104 48.333 156 145 156
c97.333 0 146 -52 146 -156c0 -34 -5.66699 -65.333 -17 -94l-18 -35c-4 -8 -10 -17.333 -18 -28c-1.33301 -1.33301 -3 -3.33301 -5 -6l-14 -19c-5.33301 -8 -10 -15.333 -14 -22c-8 -16.667 -12 -34 -12 -52c0 -4.66699 0.666992 -12 2 -22h-121z" />
    <glyph glyph-name="uni1EC9" unicode="&#x1ec9;" horiz-adv-x="389" 
d="M81 1434h225v-1434h-225v1434zM129 1491c-1.33301 8.66699 -2 17 -2 25c0 30 5.33301 56.333 16 79c4 10 8.66699 20.333 14 31l35 51l13 27c8 20.667 12 44 12 70c0 20 -6.33301 30 -19 30c-12 0 -18 -10 -18 -30v-80h-125v75c0 104 48.333 156 145 156
c97.333 0 146 -52 146 -156c0 -34 -5.66699 -65.333 -17 -94l-18 -35c-4 -8 -10 -17.333 -18 -28c-1.33301 -1.33301 -3 -3.33301 -5 -6l-14 -19c-5.33301 -8 -10 -15.333 -14 -22c-8 -16.667 -12 -34 -12 -52c0 -4.66699 0.666992 -12 2 -22h-121z" />
    <glyph glyph-name="uni1ECA" unicode="&#x1eca;" horiz-adv-x="389" 
d="M81 1434h225v-1434h-225v1434zM298 -107v-209h-209v209h209z" />
    <glyph glyph-name="uni1ECB" unicode="&#x1ecb;" horiz-adv-x="389" 
d="M81 1434h225v-1434h-225v1434zM298 -107v-209h-209v209h209z" />
    <glyph glyph-name="uni1ECC" unicode="&#x1ecc;" 
d="M288 330c0 -94.667 39 -142 117 -142s117 47.333 117 142v774c0 94 -39 141 -117 141s-117 -47 -117 -141v-774zM63 1090c0 240 114 360 342 360s342 -120 342 -360v-746c0 -240 -114 -360 -342 -360s-342 120 -342 360v746zM509 -107v-209h-208v209h208z" />
    <glyph glyph-name="uni1ECD" unicode="&#x1ecd;" 
d="M288 330c0 -94.667 39 -142 117 -142s117 47.333 117 142v774c0 94 -39 141 -117 141s-117 -47 -117 -141v-774zM63 1090c0 240 114 360 342 360s342 -120 342 -360v-746c0 -240 -114 -360 -342 -360s-342 120 -342 360v746zM509 -107v-209h-208v209h208z" />
    <glyph glyph-name="uni1ECE" unicode="&#x1ece;" 
d="M288 330c0 -94.667 39 -142 117 -142s117 47.333 117 142v774c0 94 -39 141 -117 141s-117 -47 -117 -141v-774zM63 1090c0 240 114 360 342 360s342 -120 342 -360v-746c0 -240 -114 -360 -342 -360s-342 120 -342 360v746zM334 1491
c-2 8.66699 -3.00098 17 -3.00098 25c0 30 5.66699 56.333 17 79c4 10 8.66699 20.333 14 31l35 51l12 27c8 20.667 12 44 12 70c0 20 -6 30 -18 30s-18 -10 -18 -30v-80h-125v75c0 104 48.333 156 145 156s145 -52 145 -156c0 -34 -5.33301 -65.333 -16 -94l-18 -35
c-4.66699 -8 -11 -17.333 -19 -28c-1.33301 -1.33301 -2.66602 -3.33301 -3.99902 -6l-14 -19l-15 -22c-8 -16.667 -12 -34 -12 -52c0 -4.66699 0.666992 -12 2 -22h-120z" />
    <glyph glyph-name="uni1ECF" unicode="&#x1ecf;" 
d="M288 330c0 -94.667 39 -142 117 -142s117 47.333 117 142v774c0 94 -39 141 -117 141s-117 -47 -117 -141v-774zM63 1090c0 240 114 360 342 360s342 -120 342 -360v-746c0 -240 -114 -360 -342 -360s-342 120 -342 360v746zM334 1491
c-2 8.66699 -3.00098 17 -3.00098 25c0 30 5.66699 56.333 17 79c4 10 8.66699 20.333 14 31l35 51l12 27c8 20.667 12 44 12 70c0 20 -6 30 -18 30s-18 -10 -18 -30v-80h-125v75c0 104 48.333 156 145 156s145 -52 145 -156c0 -34 -5.33301 -65.333 -16 -94l-18 -35
c-4.66699 -8 -11 -17.333 -19 -28c-1.33301 -1.33301 -2.66602 -3.33301 -3.99902 -6l-14 -19l-15 -22c-8 -16.667 -12 -34 -12 -52c0 -4.66699 0.666992 -12 2 -22h-120z" />
    <glyph glyph-name="uni1ED0" unicode="&#x1ed0;" 
d="M288 330c0 -94.667 39 -142 117 -142s117 47.333 117 142v774c0 94 -39 141 -117 141s-117 -47 -117 -141v-774zM63 1090c0 240 114 360 342 360s342 -120 342 -360v-746c0 -240 -114 -360 -342 -360s-342 120 -342 360v746zM1022 1889l-221 -240h-160l148 240h233z
M106 1503l190 240h216l190 -240h-203l-96 119l-94 -119h-203z" />
    <glyph glyph-name="uni1ED1" unicode="&#x1ed1;" 
d="M288 330c0 -94.667 39 -142 117 -142s117 47.333 117 142v774c0 94 -39 141 -117 141s-117 -47 -117 -141v-774zM63 1090c0 240 114 360 342 360s342 -120 342 -360v-746c0 -240 -114 -360 -342 -360s-342 120 -342 360v746zM1022 1889l-221 -240h-160l148 240h233z
M106 1503l190 240h216l190 -240h-203l-96 119l-94 -119h-203z" />
    <glyph glyph-name="uni1ED2" unicode="&#x1ed2;" 
d="M288 330c0 -94.667 39 -142 117 -142s117 47.333 117 142v774c0 94 -39 141 -117 141s-117 -47 -117 -141v-774zM63 1090c0 240 114 360 342 360s342 -120 342 -360v-746c0 -240 -114 -360 -342 -360s-342 120 -342 360v746zM705 1900l148 -240h-170l-222 240h244z
M106 1503l190 240h216l190 -240h-203l-96 119l-94 -119h-203z" />
    <glyph glyph-name="uni1ED3" unicode="&#x1ed3;" 
d="M288 330c0 -94.667 39 -142 117 -142s117 47.333 117 142v774c0 94 -39 141 -117 141s-117 -47 -117 -141v-774zM63 1090c0 240 114 360 342 360s342 -120 342 -360v-746c0 -240 -114 -360 -342 -360s-342 120 -342 360v746zM705 1900l148 -240h-170l-222 240h244z
M106 1503l190 240h216l190 -240h-203l-96 119l-94 -119h-203z" />
    <glyph glyph-name="uni1ED4" unicode="&#x1ed4;" 
d="M288 330c0 -94.667 39 -142 117 -142s117 47.333 117 142v774c0 94 -39 141 -117 141s-117 -47 -117 -141v-774zM63 1090c0 240 114 360 342 360s342 -120 342 -360v-746c0 -240 -114 -360 -342 -360s-342 120 -342 360v746zM644 1655
c-2 8.66699 -3.00098 17 -3.00098 25c0 30 5.66699 56.333 17 79c4 10 8.66699 20.333 14 31l35 51l12 27c8 20.667 12 44 12 70c0 20 -6 30 -18 30s-18 -10 -18 -30v-80h-125v75c0 104 48.333 156 145 156s145 -52 145 -156c0 -34 -5.33301 -65.333 -16 -94l-18 -35
c-4.66699 -8 -11 -17.333 -19 -28c-1.33301 -1.33301 -2.66602 -3.33301 -3.99902 -6l-14 -19l-15 -22c-8 -16.667 -12 -34 -12 -52c0 -4.66699 0.666992 -12 2 -22h-120zM105.999 1503l190 240h216l190 -240h-203l-96 119l-94 -119h-203z" />
    <glyph glyph-name="uni1ED5" unicode="&#x1ed5;" 
d="M288 330c0 -94.667 39 -142 117 -142s117 47.333 117 142v774c0 94 -39 141 -117 141s-117 -47 -117 -141v-774zM63 1090c0 240 114 360 342 360s342 -120 342 -360v-746c0 -240 -114 -360 -342 -360s-342 120 -342 360v746zM644 1655
c-2 8.66699 -3.00098 17 -3.00098 25c0 30 5.66699 56.333 17 79c4 10 8.66699 20.333 14 31l35 51l12 27c8 20.667 12 44 12 70c0 20 -6 30 -18 30s-18 -10 -18 -30v-80h-125v75c0 104 48.333 156 145 156s145 -52 145 -156c0 -34 -5.33301 -65.333 -16 -94l-18 -35
c-4.66699 -8 -11 -17.333 -19 -28c-1.33301 -1.33301 -2.66602 -3.33301 -3.99902 -6l-14 -19l-15 -22c-8 -16.667 -12 -34 -12 -52c0 -4.66699 0.666992 -12 2 -22h-120zM105.999 1503l190 240h216l190 -240h-203l-96 119l-94 -119h-203z" />
    <glyph glyph-name="uni1ED6" unicode="&#x1ed6;" 
d="M288 330c0 -94.667 39 -142 117 -142s117 47.333 117 142v774c0 94 -39 141 -117 141s-117 -47 -117 -141v-774zM63 1090c0 240 114 360 342 360s342 -120 342 -360v-746c0 -240 -114 -360 -342 -360s-342 120 -342 360v746zM762 1935
c-32 -57.333 -63.666 -96.666 -94.999 -117.999c-26.667 -18.667 -59.667 -28 -99 -28c-33.333 0 -72.333 9.33301 -117 28l-48 19c-16.667 6 -32 9 -46 9c-38 0 -68 -22.667 -90 -68l-115 86c32 57.333 63.667 96.666 95 117.999c26.667 18 59.667 27 99 27
c33.333 0 72.333 -9 117 -27l48 -19c17.333 -6 32.666 -9 45.999 -9c38 0 68 22.667 90 68zM106.001 1503l190 240h216l190 -240h-203l-96 119l-94 -119h-203z" />
    <glyph glyph-name="uni1ED7" unicode="&#x1ed7;" 
d="M288 330c0 -94.667 39 -142 117 -142s117 47.333 117 142v774c0 94 -39 141 -117 141s-117 -47 -117 -141v-774zM63 1090c0 240 114 360 342 360s342 -120 342 -360v-746c0 -240 -114 -360 -342 -360s-342 120 -342 360v746zM762 1935
c-32 -57.333 -63.666 -96.666 -94.999 -117.999c-26.667 -18.667 -59.667 -28 -99 -28c-33.333 0 -72.333 9.33301 -117 28l-48 19c-16.667 6 -32 9 -46 9c-38 0 -68 -22.667 -90 -68l-115 86c32 57.333 63.667 96.666 95 117.999c26.667 18 59.667 27 99 27
c33.333 0 72.333 -9 117 -27l48 -19c17.333 -6 32.666 -9 45.999 -9c38 0 68 22.667 90 68zM106.001 1503l190 240h216l190 -240h-203l-96 119l-94 -119h-203z" />
    <glyph glyph-name="uni1ED8" unicode="&#x1ed8;" 
d="M288 330c0 -94.667 39 -142 117 -142s117 47.333 117 142v774c0 94 -39 141 -117 141s-117 -47 -117 -141v-774zM63 1090c0 240 114 360 342 360s342 -120 342 -360v-746c0 -240 -114 -360 -342 -360s-342 120 -342 360v746zM509 -107v-209h-208v209h208zM106 1503
l190 240h216l190 -240h-203l-96 119l-94 -119h-203z" />
    <glyph glyph-name="uni1ED9" unicode="&#x1ed9;" 
d="M288 330c0 -94.667 39 -142 117 -142s117 47.333 117 142v774c0 94 -39 141 -117 141s-117 -47 -117 -141v-774zM63 1090c0 240 114 360 342 360s342 -120 342 -360v-746c0 -240 -114 -360 -342 -360s-342 120 -342 360v746zM509 -107v-209h-208v209h208zM106 1503
l190 240h216l190 -240h-203l-96 119l-94 -119h-203z" />
    <glyph glyph-name="uni1EDA" unicode="&#x1eda;" 
d="M289 330c0 -94.667 39 -142 117 -142c77.333 0 116 47.333 116 142v774c0 94 -38.667 141 -116 141c-78 0 -117 -47 -117 -141v-774zM678 1743l-221 -240h-160l147 240h234zM746 1148c1.33301 -18.667 2.00098 -38 2.00098 -58v-746c0 -240 -114 -360 -342 -360
c-228.667 0 -343 120 -343 360v746c0 240 114.333 360 343 360c93.333 0 167.666 -20.333 222.999 -61v137h194v-186z" />
    <glyph glyph-name="uni1EDB" unicode="&#x1edb;" 
d="M289 330c0 -94.667 39 -142 117 -142c77.333 0 116 47.333 116 142v774c0 94 -38.667 141 -116 141c-78 0 -117 -47 -117 -141v-774zM678 1743l-221 -240h-160l147 240h234zM746 1148c1.33301 -18.667 2.00098 -38 2.00098 -58v-746c0 -240 -114 -360 -342 -360
c-228.667 0 -343 120 -343 360v746c0 240 114.333 360 343 360c93.333 0 167.666 -20.333 222.999 -61v137h194v-186z" />
    <glyph glyph-name="uni1EDC" unicode="&#x1edc;" 
d="M289 330c0 -94.667 39 -142 117 -142c77.333 0 116 47.333 116 142v774c0 94 -38.667 141 -116 141c-78 0 -117 -47 -117 -141v-774zM371 1743l147 -240h-170l-221 240h244zM746 1148c1.33301 -18.667 2.00098 -38 2.00098 -58v-746c0 -240 -114 -360 -342 -360
c-228.667 0 -343 120 -343 360v746c0 240 114.333 360 343 360c93.333 0 167.666 -20.333 222.999 -61v137h194v-186z" />
    <glyph glyph-name="uni1EDD" unicode="&#x1edd;" 
d="M289 330c0 -94.667 39 -142 117 -142c77.333 0 116 47.333 116 142v774c0 94 -38.667 141 -116 141c-78 0 -117 -47 -117 -141v-774zM371 1743l147 -240h-170l-221 240h244zM746 1148c1.33301 -18.667 2.00098 -38 2.00098 -58v-746c0 -240 -114 -360 -342 -360
c-228.667 0 -343 120 -343 360v746c0 240 114.333 360 343 360c93.333 0 167.666 -20.333 222.999 -61v137h194v-186z" />
    <glyph glyph-name="uni1EDE" unicode="&#x1ede;" 
d="M289 330c0 -94.667 39 -142 117 -142c77.333 0 116 47.333 116 142v774c0 94 -38.667 141 -116 141c-78 0 -117 -47 -117 -141v-774zM334 1491c-1.33301 8.66699 -2.00098 17 -2.00098 25c0 30 5.33301 56.333 16 79c4 10 8.66699 20.333 14 31l35 51l13 27
c8 20.667 12 44 12 70c0 20 -6.33301 30 -19 30c-12 0 -18 -10 -18 -30v-80h-125v75c0 104 48.667 156 146 156c96.667 0 145 -52 145 -156c0 -34 -5.33301 -65.333 -16 -94l-19 -35c-4 -8 -10 -17.333 -18 -28c-1.33301 -1.33301 -2.66602 -3.33301 -3.99902 -6l-15 -19
c-5.33301 -8 -10 -15.333 -14 -22c-8 -16.667 -12 -34 -12 -52c0 -4.66699 0.666992 -12 2 -22h-121zM745.999 1148c1.33301 -18.667 2.00098 -38 2.00098 -58v-746c0 -240 -114 -360 -342 -360c-228.667 0 -343 120 -343 360v746c0 240 114.333 360 343 360
c93.333 0 167.666 -20.333 222.999 -61v137h194v-186z" />
    <glyph glyph-name="uni1EDF" unicode="&#x1edf;" 
d="M289 330c0 -94.667 39 -142 117 -142c77.333 0 116 47.333 116 142v774c0 94 -38.667 141 -116 141c-78 0 -117 -47 -117 -141v-774zM334 1491c-1.33301 8.66699 -2.00098 17 -2.00098 25c0 30 5.33301 56.333 16 79c4 10 8.66699 20.333 14 31l35 51l13 27
c8 20.667 12 44 12 70c0 20 -6.33301 30 -19 30c-12 0 -18 -10 -18 -30v-80h-125v75c0 104 48.667 156 146 156c96.667 0 145 -52 145 -156c0 -34 -5.33301 -65.333 -16 -94l-19 -35c-4 -8 -10 -17.333 -18 -28c-1.33301 -1.33301 -2.66602 -3.33301 -3.99902 -6l-15 -19
c-5.33301 -8 -10 -15.333 -14 -22c-8 -16.667 -12 -34 -12 -52c0 -4.66699 0.666992 -12 2 -22h-121zM745.999 1148c1.33301 -18.667 2.00098 -38 2.00098 -58v-746c0 -240 -114 -360 -342 -360c-228.667 0 -343 120 -343 360v746c0 240 114.333 360 343 360
c93.333 0 167.666 -20.333 222.999 -61v137h194v-186z" />
    <glyph glyph-name="uni1EE0" unicode="&#x1ee0;" 
d="M289 330c0 -94.667 39 -142 117 -142c77.333 0 116 47.333 116 142v774c0 94 -38.667 141 -116 141c-78 0 -117 -47 -117 -141v-774zM726 1695c-32 -57.333 -63.667 -96.666 -95 -117.999c-26.667 -18.667 -60 -28 -100 -28c-33.333 0 -72 9.33301 -116 28l-48 19
c-17.333 6 -33 9 -47 9c-37.333 0 -67.333 -22.667 -90 -68l-115 86c32 57.333 63.667 96.666 95 117.999c26.667 18 60 27 100 27c33.333 0 72 -9 116 -27l48 -19c17.333 -6 33 -9 47 -9c37.333 0 67.333 22.667 90 68zM746 1148c1.33301 -18.667 2.00098 -38 2.00098 -58
v-746c0 -240 -114 -360 -342 -360c-228.667 0 -343 120 -343 360v746c0 240 114.333 360 343 360c93.333 0 167.666 -20.333 222.999 -61v137h194v-186z" />
    <glyph glyph-name="uni1EE1" unicode="&#x1ee1;" 
d="M289 330c0 -94.667 39 -142 117 -142c77.333 0 116 47.333 116 142v774c0 94 -38.667 141 -116 141c-78 0 -117 -47 -117 -141v-774zM726 1695c-32 -57.333 -63.667 -96.666 -95 -117.999c-26.667 -18.667 -60 -28 -100 -28c-33.333 0 -72 9.33301 -116 28l-48 19
c-17.333 6 -33 9 -47 9c-37.333 0 -67.333 -22.667 -90 -68l-115 86c32 57.333 63.667 96.666 95 117.999c26.667 18 60 27 100 27c33.333 0 72 -9 116 -27l48 -19c17.333 -6 33 -9 47 -9c37.333 0 67.333 22.667 90 68zM746 1148c1.33301 -18.667 2.00098 -38 2.00098 -58
v-746c0 -240 -114 -360 -342 -360c-228.667 0 -343 120 -343 360v746c0 240 114.333 360 343 360c93.333 0 167.666 -20.333 222.999 -61v137h194v-186z" />
    <glyph glyph-name="uni1EE2" unicode="&#x1ee2;" 
d="M289 330c0 -94.667 39 -142 117 -142c77.333 0 116 47.333 116 142v774c0 94 -38.667 141 -116 141c-78 0 -117 -47 -117 -141v-774zM510 -107v-209h-209v209h209zM746 1148c1.33301 -18.667 2.00098 -38 2.00098 -58v-746c0 -240 -114 -360 -342 -360
c-228.667 0 -343 120 -343 360v746c0 240 114.333 360 343 360c93.333 0 167.666 -20.333 222.999 -61v137h194v-186z" />
    <glyph glyph-name="uni1EE3" unicode="&#x1ee3;" 
d="M289 330c0 -94.667 39 -142 117 -142c77.333 0 116 47.333 116 142v774c0 94 -38.667 141 -116 141c-78 0 -117 -47 -117 -141v-774zM510 -107v-209h-209v209h209zM746 1148c1.33301 -18.667 2.00098 -38 2.00098 -58v-746c0 -240 -114 -360 -342 -360
c-228.667 0 -343 120 -343 360v746c0 240 114.333 360 343 360c93.333 0 167.666 -20.333 222.999 -61v137h194v-186z" />
    <glyph glyph-name="uni1EE4" unicode="&#x1ee4;" horiz-adv-x="815" 
d="M296 1434v-1106c0 -93.333 39 -140 117 -140s117 46.667 117 140v1106h213v-1092c0 -240 -112 -360 -336 -360s-336 120 -336 360v1092h225zM511 -107v-209h-209v209h209z" />
    <glyph glyph-name="uni1EE5" unicode="&#x1ee5;" horiz-adv-x="815" 
d="M296 1434v-1106c0 -93.333 39 -140 117 -140s117 46.667 117 140v1106h213v-1092c0 -240 -112 -360 -336 -360s-336 120 -336 360v1092h225zM511 -107v-209h-209v209h209z" />
    <glyph glyph-name="uni1EE6" unicode="&#x1ee6;" horiz-adv-x="815" 
d="M296 1434v-1106c0 -93.333 39 -140 117 -140s117 46.667 117 140v1106h213v-1092c0 -240 -112 -360 -336 -360s-336 120 -336 360v1092h225zM334 1491c-2 8.66699 -3.00195 17.001 -3.00195 25.001c0 30 5.33301 56.333 16 79l15 31l35 51l12 27c8 20.667 12 44 12 70
c0 20 -6 30 -18 30c-12.667 0 -19 -10 -19 -30v-80h-125v75c0 104 48.667 156 146 156c96.667 0 145 -52 145 -156c0 -34 -5.33301 -65.333 -16 -94c-5.33301 -10.667 -11.666 -22.334 -18.999 -35.001c-4 -8 -10 -17.333 -18 -28
c-1.33301 -1.33301 -2.66602 -3.33301 -3.99902 -6l-14 -19c-6 -8 -11 -15.333 -15 -22c-8 -16.667 -12 -34 -12 -52c0 -4.66699 0.666992 -12 2 -22h-120z" />
    <glyph glyph-name="uni1EE7" unicode="&#x1ee7;" horiz-adv-x="815" 
d="M296 1434v-1106c0 -93.333 39 -140 117 -140s117 46.667 117 140v1106h213v-1092c0 -240 -112 -360 -336 -360s-336 120 -336 360v1092h225zM334 1491c-2 8.66699 -3.00195 17.001 -3.00195 25.001c0 30 5.33301 56.333 16 79l15 31l35 51l12 27c8 20.667 12 44 12 70
c0 20 -6 30 -18 30c-12.667 0 -19 -10 -19 -30v-80h-125v75c0 104 48.667 156 146 156c96.667 0 145 -52 145 -156c0 -34 -5.33301 -65.333 -16 -94c-5.33301 -10.667 -11.666 -22.334 -18.999 -35.001c-4 -8 -10 -17.333 -18 -28
c-1.33301 -1.33301 -2.66602 -3.33301 -3.99902 -6l-14 -19c-6 -8 -11 -15.333 -15 -22c-8 -16.667 -12 -34 -12 -52c0 -4.66699 0.666992 -12 2 -22h-120z" />
    <glyph glyph-name="uni1EE8" unicode="&#x1ee8;" horiz-adv-x="815" 
d="M681 1743l-221 -240h-160l148 240h233zM742 1142v-800c0 -240 -111.667 -360 -335 -360c-224 0 -336 120 -336 360v1092h225v-1106c0 -93.333 39 -140 117 -140c77.333 0 116 46.667 116 140v1106h99v92h194v-186z" />
    <glyph glyph-name="uni1EE9" unicode="&#x1ee9;" horiz-adv-x="815" 
d="M681 1743l-221 -240h-160l148 240h233zM742 1142v-800c0 -240 -111.667 -360 -335 -360c-224 0 -336 120 -336 360v1092h225v-1106c0 -93.333 39 -140 117 -140c77.333 0 116 46.667 116 140v1106h99v92h194v-186z" />
    <glyph glyph-name="uni1EEA" unicode="&#x1eea;" horiz-adv-x="815" 
d="M374 1743l147 -240h-170l-221 240h244zM742 1142v-800c0 -240 -111.667 -360 -335 -360c-224 0 -336 120 -336 360v1092h225v-1106c0 -93.333 39 -140 117 -140c77.333 0 116 46.667 116 140v1106h99v92h194v-186z" />
    <glyph glyph-name="uni1EEB" unicode="&#x1eeb;" horiz-adv-x="815" 
d="M374 1743l147 -240h-170l-221 240h244zM742 1142v-800c0 -240 -111.667 -360 -335 -360c-224 0 -336 120 -336 360v1092h225v-1106c0 -93.333 39 -140 117 -140c77.333 0 116 46.667 116 140v1106h99v92h194v-186z" />
    <glyph glyph-name="uni1EEC" unicode="&#x1eec;" horiz-adv-x="815" 
d="M333 1491c-1.33301 8.66699 -2.00098 17 -2.00098 25c0 30 5.33301 56.333 16 79c4 10 8.66699 20.333 14 31l35 51l13 27c8 20.667 12 44 12 70c0 20 -6.33301 30 -19 30c-12 0 -18 -10 -18 -30v-80h-125v75c0 104 48.667 156 146 156c96.667 0 145 -52 145 -156
c0 -34 -5.33301 -65.333 -16 -94l-19 -35c-4 -8 -10 -17.333 -18 -28c-1.33301 -1.33301 -2.66602 -3.33301 -3.99902 -6l-15 -19c-5.33301 -8 -10 -15.333 -14 -22c-8 -16.667 -12 -34 -12 -52c0 -4.66699 0.666992 -12 2 -22h-121zM741.999 1142v-800
c0 -240 -111.667 -360 -335 -360c-224 0 -336 120 -336 360v1092h225v-1106c0 -93.333 39 -140 117 -140c77.333 0 116 46.667 116 140v1106h99v92h194v-186z" />
    <glyph glyph-name="uni1EED" unicode="&#x1eed;" horiz-adv-x="815" 
d="M333 1491c-1.33301 8.66699 -2.00098 17 -2.00098 25c0 30 5.33301 56.333 16 79c4 10 8.66699 20.333 14 31l35 51l13 27c8 20.667 12 44 12 70c0 20 -6.33301 30 -19 30c-12 0 -18 -10 -18 -30v-80h-125v75c0 104 48.667 156 146 156c96.667 0 145 -52 145 -156
c0 -34 -5.33301 -65.333 -16 -94l-19 -35c-4 -8 -10 -17.333 -18 -28c-1.33301 -1.33301 -2.66602 -3.33301 -3.99902 -6l-15 -19c-5.33301 -8 -10 -15.333 -14 -22c-8 -16.667 -12 -34 -12 -52c0 -4.66699 0.666992 -12 2 -22h-121zM741.999 1142v-800
c0 -240 -111.667 -360 -335 -360c-224 0 -336 120 -336 360v1092h225v-1106c0 -93.333 39 -140 117 -140c77.333 0 116 46.667 116 140v1106h99v92h194v-186z" />
    <glyph glyph-name="uni1EEE" unicode="&#x1eee;" horiz-adv-x="815" 
d="M710 1701c-32 -57.333 -63.667 -96.666 -95 -117.999c-26.667 -18.667 -60 -28 -100 -28c-33.333 0 -72 9.33301 -116 28l-48 19c-17.333 6 -33 9 -47 9c-37.333 0 -67.333 -22.667 -90 -68l-115 86c32 57.333 63.667 96.666 95 117.999c26.667 18 60 27 100 27
c33.333 0 72 -9 116 -27l48 -19c17.333 -6 33 -9 47 -9c37.333 0 67.333 22.667 90 68zM742 1142v-800c0 -240 -111.667 -360 -335 -360c-224 0 -336 120 -336 360v1092h225v-1106c0 -93.333 39 -140 117 -140c77.333 0 116 46.667 116 140v1106h99v92h194v-186z" />
    <glyph glyph-name="uni1EEF" unicode="&#x1eef;" horiz-adv-x="815" 
d="M710 1701c-32 -57.333 -63.667 -96.666 -95 -117.999c-26.667 -18.667 -60 -28 -100 -28c-33.333 0 -72 9.33301 -116 28l-48 19c-17.333 6 -33 9 -47 9c-37.333 0 -67.333 -22.667 -90 -68l-115 86c32 57.333 63.667 96.666 95 117.999c26.667 18 60 27 100 27
c33.333 0 72 -9 116 -27l48 -19c17.333 -6 33 -9 47 -9c37.333 0 67.333 22.667 90 68zM742 1142v-800c0 -240 -111.667 -360 -335 -360c-224 0 -336 120 -336 360v1092h225v-1106c0 -93.333 39 -140 117 -140c77.333 0 116 46.667 116 140v1106h99v92h194v-186z" />
    <glyph glyph-name="uni1EF0" unicode="&#x1ef0;" horiz-adv-x="815" 
d="M511 -107v-209h-209v209h209zM742 1142v-800c0 -240 -111.667 -360 -335 -360c-224 0 -336 120 -336 360v1092h225v-1106c0 -93.333 39 -140 117 -140c77.333 0 116 46.667 116 140v1106h99v92h194v-186z" />
    <glyph glyph-name="uni1EF1" unicode="&#x1ef1;" horiz-adv-x="815" 
d="M511 -107v-209h-209v209h209zM742 1142v-800c0 -240 -111.667 -360 -335 -360c-224 0 -336 120 -336 360v1092h225v-1106c0 -93.333 39 -140 117 -140c77.333 0 116 46.667 116 140v1106h99v92h194v-186z" />
    <glyph glyph-name="Ygrave" unicode="&#x1ef2;" 
d="M293 475l-285 959h236l172 -654l172 654h215l-285 -959v-475h-225v475zM375 1743l147 -240h-170l-221 240h244z" />
    <glyph glyph-name="ygrave" unicode="&#x1ef3;" 
d="M293 475l-285 959h236l172 -654l172 654h215l-285 -959v-475h-225v475zM375 1743l147 -240h-170l-221 240h244z" />
    <glyph glyph-name="uni1EF4" unicode="&#x1ef4;" 
d="M293 475l-285 959h236l172 -654l172 654h215l-285 -959v-475h-225v475zM512 -107v-209h-209v209h209z" />
    <glyph glyph-name="uni1EF5" unicode="&#x1ef5;" 
d="M293 475l-285 959h236l172 -654l172 654h215l-285 -959v-475h-225v475zM512 -107v-209h-209v209h209z" />
    <glyph glyph-name="uni1EF6" unicode="&#x1ef6;" 
d="M293 475l-285 959h236l172 -654l172 654h215l-285 -959v-475h-225v475zM360 1491c-1.33301 8.66699 -2.00098 17 -2.00098 25c0 30 5.33301 56.333 16 79c4 10 8.66699 20.333 14 31l35 51l12 27c8.66699 20.667 13 44 13 70c0 20 -6.33301 30 -19 30
c-12 0 -18 -10 -18 -30v-80h-125v75c0 104 48.333 156 145 156c97.333 0 146 -52 146 -156c0 -34 -5.66699 -65.333 -17 -94l-18 -35c-4 -8 -10.333 -17.333 -19 -28c-1.33301 -1.33301 -2.66602 -3.33301 -3.99902 -6l-14 -19c-5.33301 -8 -10 -15.333 -14 -22
c-8.66699 -16.667 -13 -34 -13 -52c0 -4.66699 1 -12 3 -22h-121z" />
    <glyph glyph-name="uni1EF7" unicode="&#x1ef7;" 
d="M293 475l-285 959h236l172 -654l172 654h215l-285 -959v-475h-225v475zM360 1491c-1.33301 8.66699 -2.00098 17 -2.00098 25c0 30 5.33301 56.333 16 79c4 10 8.66699 20.333 14 31l35 51l12 27c8.66699 20.667 13 44 13 70c0 20 -6.33301 30 -19 30
c-12 0 -18 -10 -18 -30v-80h-125v75c0 104 48.333 156 145 156c97.333 0 146 -52 146 -156c0 -34 -5.66699 -65.333 -17 -94l-18 -35c-4 -8 -10.333 -17.333 -19 -28c-1.33301 -1.33301 -2.66602 -3.33301 -3.99902 -6l-14 -19c-5.33301 -8 -10 -15.333 -14 -22
c-8.66699 -16.667 -13 -34 -13 -52c0 -4.66699 1 -12 3 -22h-121z" />
    <glyph glyph-name="uni1EF8" unicode="&#x1ef8;" 
d="M293 475l-285 959h236l172 -654l172 654h215l-285 -959v-475h-225v475zM710 1649c-32 -57.333 -63.668 -96.666 -95.001 -117.999c-26 -18.667 -59 -28 -99 -28c-33.333 0 -72 9.33301 -116 28l-48 19c-17.333 6 -33 9 -47 9c-37.333 0 -67.333 -22.667 -90 -68l-115 86
c32 57.333 63.667 96.666 95 117.999c26.667 18 60 27 100 27c32.667 0 71.334 -9 116.001 -27l48 -19c17.333 -6 33 -9 47 -9c37.333 0 67.333 22.667 90 68z" />
    <glyph glyph-name="uni1EF9" unicode="&#x1ef9;" 
d="M293 475l-285 959h236l172 -654l172 654h215l-285 -959v-475h-225v475zM710 1649c-32 -57.333 -63.668 -96.666 -95.001 -117.999c-26 -18.667 -59 -28 -99 -28c-33.333 0 -72 9.33301 -116 28l-48 19c-17.333 6 -33 9 -47 9c-37.333 0 -67.333 -22.667 -90 -68l-115 86
c32 57.333 63.667 96.666 95 117.999c26.667 18 60 27 100 27c32.667 0 71.334 -9 116.001 -27l48 -19c17.333 -6 33 -9 47 -9c37.333 0 67.333 22.667 90 68z" />
    <glyph glyph-name="endash" unicode="&#x2013;" horiz-adv-x="1024" 
d="M0 809h1024v-184h-1024v184z" />
    <glyph glyph-name="emdash" unicode="&#x2014;" horiz-adv-x="2048" 
d="M0 809h2048v-184h-2048v184z" />
    <glyph glyph-name="quoteleft" unicode="&#x2018;" horiz-adv-x="380" 
d="M298 1229v-217h-217v194l98 228h92l-59 -205h86z" />
    <glyph glyph-name="quoteright" unicode="&#x2019;" horiz-adv-x="380" 
d="M81 1217v217h217v-195l-98 -227h-92l59 205h-86z" />
    <glyph glyph-name="quotedblleft" unicode="&#x201c;" horiz-adv-x="679" 
d="M298 1229v-217h-217v194l98 228h92l-59 -205h86zM597 1229v-217h-217v194l98 228h92l-59 -205h86z" />
    <glyph glyph-name="quotedblright" unicode="&#x201d;" horiz-adv-x="679" 
d="M81 1217v217h217v-195l-98 -227h-92l59 205h-86zM380 1217v217h217v-195l-98 -227h-92l59 205h-86z" />
    <glyph glyph-name="ellipsis" unicode="&#x2026;" horiz-adv-x="978" 
d="M298 217v-217h-217v217h217zM597 217v-217h-217v217h217zM896 217v-217h-217v217h217z" />
    <glyph glyph-name="minus" unicode="&#x2212;" 
d="M0 809h811v-184h-811v184z" />
    <glyph glyph-name=".null" horiz-adv-x="0" 
 />
    <glyph glyph-name="nonmarkingreturn" horiz-adv-x="571" 
 />
    <glyph glyph-name="Eth" horiz-adv-x="1516" 
 />
    <glyph glyph-name="ugrave" horiz-adv-x="582" 
 />
    <glyph glyph-name="uacute" horiz-adv-x="580" 
 />
    <glyph glyph-name="yacute" horiz-adv-x="629" 
 />
    </font>
</defs>
</svg>
