<svg width="75" height="74" viewBox="0 0 75 74" fill="none" xmlns="http://www.w3.org/2000/svg">
<rect x="0.5" y="0.5" width="74" height="73" rx="36.5" fill="white"/>
<path d="M54.1666 57.4871H20.8333C19.7282 57.4871 18.6684 57.0481 17.887 56.2667C17.1056 55.4853 16.6666 54.4255 16.6666 53.3204V30.5059C16.7013 29.8172 16.9037 29.1474 17.2562 28.5549C17.6088 27.9623 18.1008 27.4649 18.6895 27.1059L35.3562 17.1059C36.0035 16.7177 36.7441 16.5127 37.4989 16.5127C38.2537 16.5127 38.9943 16.7177 39.6416 17.1059L56.3083 27.1059C57.5604 27.8621 58.3291 29.2163 58.3333 30.6788V53.3204C58.3333 54.4255 57.8943 55.4853 57.1129 56.2667C56.3315 57.0481 55.2717 57.4871 54.1666 57.4871ZM20.8333 32.2121V53.3204H54.1666V32.2121L37.5 43.3225L20.8333 32.2121ZM37.5 20.6788L23.575 29.0329L37.5 38.3163L51.4229 29.0329L37.5 20.6788Z" fill="#009B49"/>
<rect x="0.5" y="0.5" width="74" height="73" rx="36.5" stroke="#D8E3E8"/>
</svg>
