<svg width="35" height="24" viewBox="0 0 35 24" fill="none" xmlns="http://www.w3.org/2000/svg">
<rect x="0.5" y="0.5" width="34" height="23" rx="3.5" fill="white" stroke="#D9D9D9"/>
<path d="M10.3223 17L9.70117 14.9609H6.57812L5.95703 17H4L7.02344 8.39844H9.24414L12.2793 17H10.3223ZM9.26758 13.4375L8.64648 11.4453C8.60742 11.3125 8.55469 11.1426 8.48828 10.9355C8.42578 10.7246 8.36133 10.5117 8.29492 10.2969C8.23242 10.0781 8.18164 9.88867 8.14258 9.72852C8.10352 9.88867 8.04883 10.0879 7.97852 10.3262C7.91211 10.5605 7.84766 10.7832 7.78516 10.9941C7.72266 11.2051 7.67773 11.3555 7.65039 11.4453L7.03516 13.4375H9.26758ZM16.668 17H14.8516V9.94531H12.5254V8.43359H18.9941V9.94531H16.668V17ZM23.9395 17L21.877 10.2793H21.8242C21.832 10.4395 21.8438 10.6816 21.8594 11.0059C21.8789 11.3262 21.8965 11.668 21.9121 12.0312C21.9277 12.3945 21.9355 12.7227 21.9355 13.0156V17H20.3125V8.43359H22.7852L24.8125 14.9844H24.8477L26.998 8.43359H29.4707V17H27.7773V12.9453C27.7773 12.6758 27.7812 12.3652 27.7891 12.0137C27.8008 11.6621 27.8145 11.3281 27.8301 11.0117C27.8457 10.6914 27.8574 10.4512 27.8652 10.291H27.8125L25.6035 17H23.9395Z" fill="#B41D8D"/>
</svg>
