<svg width="35" height="24" viewBox="0 0 35 24" fill="none" xmlns="http://www.w3.org/2000/svg">
<rect x="0.5" y="0.5" width="34" height="23" rx="3.5" fill="white" stroke="#D9D9D9"/>
<path d="M8.7168 9.82227C8.36914 9.82227 8.06055 9.89062 7.79102 10.0273C7.52539 10.1602 7.30078 10.3535 7.11719 10.6074C6.9375 10.8613 6.80078 11.168 6.70703 11.5273C6.61328 11.8867 6.56641 12.291 6.56641 12.7402C6.56641 13.3457 6.64062 13.8633 6.78906 14.293C6.94141 14.7188 7.17578 15.0449 7.49219 15.2715C7.80859 15.4941 8.2168 15.6055 8.7168 15.6055C9.06445 15.6055 9.41211 15.5664 9.75977 15.4883C10.1113 15.4102 10.4922 15.2988 10.9023 15.1543V16.6777C10.5234 16.834 10.1504 16.9453 9.7832 17.0117C9.41602 17.082 9.00391 17.1172 8.54688 17.1172C7.66406 17.1172 6.9375 16.9355 6.36719 16.5723C5.80078 16.2051 5.38086 15.6934 5.10742 15.0371C4.83398 14.377 4.69727 13.6074 4.69727 12.7285C4.69727 12.0801 4.78516 11.4863 4.96094 10.9473C5.13672 10.4082 5.39453 9.94141 5.73438 9.54688C6.07422 9.15234 6.49414 8.84766 6.99414 8.63281C7.49414 8.41797 8.06836 8.31055 8.7168 8.31055C9.14258 8.31055 9.56836 8.36523 9.99414 8.47461C10.4238 8.58008 10.834 8.72656 11.2246 8.91406L10.6387 10.3906C10.3184 10.2383 9.99609 10.1055 9.67188 9.99219C9.34766 9.87891 9.0293 9.82227 8.7168 9.82227ZM20.5059 12.7051C20.5059 13.3652 20.4238 13.9668 20.2598 14.5098C20.0957 15.0488 19.8457 15.5137 19.5098 15.9043C19.1777 16.2949 18.7559 16.5957 18.2441 16.8066C17.7324 17.0137 17.127 17.1172 16.4277 17.1172C15.7285 17.1172 15.123 17.0137 14.6113 16.8066C14.0996 16.5957 13.6758 16.2949 13.3398 15.9043C13.0078 15.5137 12.7598 15.0469 12.5957 14.5039C12.4316 13.9609 12.3496 13.3574 12.3496 12.6934C12.3496 11.8066 12.4941 11.0352 12.7832 10.3789C13.0762 9.71875 13.5254 9.20703 14.1309 8.84375C14.7363 8.48047 15.5059 8.29883 16.4395 8.29883C17.3691 8.29883 18.1328 8.48047 18.7305 8.84375C19.332 9.20703 19.7773 9.71875 20.0664 10.3789C20.3594 11.0391 20.5059 11.8145 20.5059 12.7051ZM14.2539 12.7051C14.2539 13.3027 14.3281 13.8184 14.4766 14.252C14.6289 14.6816 14.8652 15.0137 15.1855 15.248C15.5059 15.4785 15.9199 15.5938 16.4277 15.5938C16.9434 15.5938 17.3613 15.4785 17.6816 15.248C18.002 15.0137 18.2344 14.6816 18.3789 14.252C18.5273 13.8184 18.6016 13.3027 18.6016 12.7051C18.6016 11.8066 18.4336 11.0996 18.0977 10.584C17.7617 10.0684 17.209 9.81055 16.4395 9.81055C15.9277 9.81055 15.5098 9.92773 15.1855 10.1621C14.8652 10.3926 14.6289 10.7246 14.4766 11.1582C14.3281 11.5879 14.2539 12.1035 14.2539 12.7051ZM29.3887 12.6348C29.3887 13.5996 29.2031 14.4062 28.832 15.0547C28.4648 15.6992 27.9316 16.1855 27.2324 16.5137C26.5332 16.8379 25.6914 17 24.707 17H22.2812V8.43359H24.9707C25.8691 8.43359 26.6484 8.59375 27.3086 8.91406C27.9688 9.23047 28.4805 9.70117 28.8438 10.3262C29.207 10.9473 29.3887 11.7168 29.3887 12.6348ZM27.502 12.6816C27.502 12.0488 27.4082 11.5293 27.2207 11.123C27.0371 10.7129 26.7637 10.4102 26.4004 10.2148C26.041 10.0195 25.5957 9.92188 25.0645 9.92188H24.0977V15.5H24.877C25.7637 15.5 26.4219 15.2637 26.8516 14.791C27.2852 14.3184 27.502 13.6152 27.502 12.6816Z" fill="#231F20"/>
</svg>
